<?xml version="1.0" encoding="UTF-8"?>
<svg id="Layer_1" xmlns="http://www.w3.org/2000/svg" version="1.1" viewBox="0 0 49.67 50">
  
  <path d="M20.57,7.01c1.29-1.74,1.79-2.81,1.98-4.19.1-.73,0-1.54-.3-2.27l-.22-.55.23.14c.39.23.83.76,1.04,1.22.69,1.59-.18,3.6-2.42,5.55l-.65.57.34-.47h0ZM17.7,11.18s.77-.65,1.61-1.35c1.92-1.58,2.81-2.4,3.64-3.37,1.49-1.72,1.98-3.27,1.44-4.53l-.17-.38.39.44c.24.27.5.69.67,1.08.26.61.27.66.24,1.42-.03.63-.08.88-.25,1.29-.49,1.14-1.52,2.09-3.29,3.04-.55.29-1.75.96-2.68,1.49s-1.65.92-1.61.87h0ZM26.88,12.7c.28-1.29.95-1.91,1.91-1.76l.39.06-.24.1c-.33.13-.4.23-.67.88-.26.62-.48.81-1.06.91l-.37.06.06-.26h0ZM29.9,17.94c0-.21.37-1.1.56-1.35.3-.4.62-.56,1.14-.56s.58.07.26.26c-.18.1-.32.31-.51.76-.31.7-.59.94-1.13.94-.18,0-.33-.02-.33-.04h0ZM13.41,29.97c-.67-1.39-1.15-2.97-1.36-4.54-.15-1.08-.15-3.03,0-4.02.52-3.44,2.38-6.67,5.04-8.75.93-.72,1.66-1.14,3.83-2.16,2.94-1.39,4.02-2.07,4.8-3.04.7-.88.93-1.71.74-2.66-.06-.3-.11-.54-.1-.54.05,0,.67,1.19.85,1.64.18.45.21.65.21,1.28,0,.65-.03.82-.2,1.21-.52,1.15-1.71,1.93-5.18,3.4-3.29,1.39-5.03,2.54-6.58,4.34-1.56,1.81-2.37,3.58-2.79,6.12-.21,1.25-.19,3.63.03,4.84.19,1.02.54,2.22.86,2.97.3.7.21.64-.14-.08ZM24.05,33.29c-.47-.2-.99-.76-1.27-1.33-.06-.12.01-.1.37.09.63.34,1.75.39,2.46.11.56-.22,1.03-.56,1.37-1.02l.24-.32v.3c0,.4-.33,1.15-.66,1.48-.5.51-1,.74-1.67.77-.34.02-.72-.02-.84-.07h0ZM22.44,36.89c-3.6-.63-6.57-3.1-8.07-6.72-1.34-3.23-1.31-6.93.08-10.19.95-2.23,2.63-4.08,4.77-5.27.75-.41,2.37-1.06,2.99-1.19.26-.05.21,0-.34.32-1.28.75-2.61,2.57-3.24,4.44-.66,1.92-.82,4.18-.42,5.82.26,1.08.64,1.81,1.37,2.67.54.63.78.83,1.38,1.18.79.45,1.53.67,2.26.68.47,0,1.03-.13,1.03-.25,0-.03-.2-.2-.45-.36-.93-.61-1.83-1.76-2.36-2.99-.78-1.8-.6-3.71.53-5.46.31-.48.48-.63.32-.27-.2.45-.34,1.58-.3,2.46.07,1.5.55,2.77,1.51,3.98,1.81,2.28,4.41,2.91,6.6,1.6.71-.42,1.48-1.3,1.78-2.02.21-.49.22-.61.22-1.51s-.02-1.01-.23-1.51c-.7-1.61-2.45-2.73-4.28-2.73-1.47,0-2.92.7-3.56,1.72-.26.42-.3.34-.36-.77-.1-1.92.48-3.57,1.75-4.95.7-.76,1.62-1.34,2.55-1.6.7-.2,1.97-.2,2.68,0,1.23.33,2.61,1.37,3.27,2.46.49.81.51.89.07.33-1-1.28-2.75-2.02-4.15-1.77-1.14.21-1.99.7-2.79,1.64-.46.54-1.11,1.68-1.02,1.78.02.02.29,0,.6-.06,1.05-.17,2.74.04,3.88.5,1.04.41,1.76.91,2.47,1.73.76.87,1.07,1.51,1.27,2.62.49,2.74-1.38,5.27-4.45,6.03-1.2.3-2.59.25-3.86-.13l-.54-.16-.57.33c-1.41.82-3.1.92-4.65.27-1.6-.68-2.84-2.24-3.44-4.34-.21-.74-.24-.99-.28-2.15-.05-1.78.1-2.74.78-4.9.03-.1-.17.09-.44.42-1.12,1.35-1.73,3.51-1.73,6.09,0,1.25.11,2.08.42,3.15.98,3.36,3.78,6.11,6.96,6.82,2.85.63,6.27-.16,8.75-2.02,1.15-.87,2.5-2.35,3.11-3.43.25-.45.3-.45.14-.03-.43,1.19-1.47,2.9-2.46,4.03-.93,1.07-1.74,1.75-2.82,2.37-1.76,1.01-2.93,1.33-5.05,1.37-.8.02-1.56.01-1.68-.01h0ZM44.79,49.82s-.05-2.05-.05-4.48v-4.42l.2-.09c.27-.12.69-.02.93.23l.2.2.04,3.66.04,3.66,1.59.04c1.5.04,1.59.05,1.75.24.12.14.17.31.17.58v.38s-2.41.02-2.41.02c-1.33.01-2.44,0-2.47-.04h0ZM38.16,45.4v-4.47l5.01.05v.39c-.01.31-.06.44-.22.6-.2.2-.24.21-1.81.21h-1.6v2.39h2.76l-.02.64-.02.64-1.36.02-1.36.02v2.74h3.38l.22.26c.17.2.22.34.22.62v.36h-5.2v-4.47h0ZM31.54,49.76c-.02-.06-.03-2.06-.02-4.45l.02-4.34,2.51-.02,2.5-.02v.31c0,.41-.13.72-.36.84-.12.06-.77.1-1.75.1h-1.56v2.39h2.75v1.33h-2.75v2.75h1.65c2.06,0,2.18.05,2.18.89v.35h-2.56c-1.98,0-2.57-.03-2.6-.11h0ZM23.71,45.36v-4.52h.42c.33,0,.46.04.63.21l.21.21.04,1.63.04,1.62,1.82.02,1.82.02v-3.72h.43c.37,0,.46.03.65.26l.22.26v8.52h-1.3v-3.99l-1.82.02-1.82.02-.02,1.97-.02,1.97h-1.3v-4.52h0ZM12.39,46.25c0-.08-1.06-3.31-1.11-3.36-.02-.03-.51,1.39-1,2.88l-.18.55h1.14c.63,0,1.14-.04,1.14-.08h0ZM7.6,49.72c.03-.08.71-2.08,1.52-4.43l1.47-4.28.3-.1c.35-.11.74-.06,1,.13.13.1.55,1.21,1.64,4.37.8,2.33,1.46,4.29,1.46,4.35,0,.08-.19.11-.68.11h-.68l-.4-1.15-.4-1.15-1.56.02-1.56.02-.77,2.26h-.69c-.63,0-.69-.01-.64-.16h0ZM0,45.44v-4.43l.21-.09c.35-.16.85-.04,1.09.24.12.14.94,1.47,1.84,2.96s1.71,2.84,1.82,3.01l.2.31.04-3.28.04-3.28.26-.03c.14-.02.36.02.48.08.46.22.45.08.45,4.71v4.23h-1.21l-1.94-3.13-1.94-3.13-.02,3.13-.02,3.13H0v-4.43h0ZM21.12,49.97c-.34-.1-.42-.19-2.06-2.42-.78-1.06-1.45-1.93-1.48-1.93s-.06.96-.06,2.13v2.13h-1.3v-9.04h.43c.37,0,.46.03.65.26l.22.26v1.65c0,.91.03,1.65.07,1.65s.74-.8,1.56-1.77c1.5-1.78,1.86-2.11,2.22-1.99.34.11.74.34.74.43,0,.05-.71.92-1.57,1.92l-1.57,1.83,1.69,2.29c.93,1.26,1.69,2.32,1.69,2.36,0,.19-.82.36-1.21.25"></path>
</svg>