<?xml version="1.0" encoding="UTF-8"?>
<svg id="layer" xmlns="http://www.w3.org/2000/svg" version="1.1" viewBox="0 0 50 50">
  
  <path d="M11.99,35.52l-2.24,5.98h2l.26-.79h2.07l.26.79h2l-2.23-5.98h-2.12ZM12.47,39.28l.42-1.27c.06-.22.12-.46.16-.77.04.31.1.55.17.77l.42,1.27h-1.17Z"></path>
  <polygon points="18.74 35.52 16.76 35.52 16.76 41.5 21.29 41.5 21.29 39.77 18.74 39.77 18.74 35.52"></polygon>
  <rect x="34.03" y="8" width="6.06" height="11.11"></rect>
  <g>
    <path d="M49.5,49.5H.5V.5h49v49ZM50,0H0v50h50V0Z"></path>
    <g>
      <path d="M24.42,35.52h-2.58v5.98h2.58c2.14,0,3.1-1.24,3.1-2.99.01-1.75-.95-2.99-3.1-2.99M24.37,39.84h-.56v-2.67h.56c.7,0,1.13.36,1.13,1.33s-.43,1.34-1.13,1.34"></path>
      <path d="M29.64,35.52l-2.23,5.98h2l.26-.79h2.07l.26.79h2l-2.23-5.98h-2.13ZM30.12,39.28l.42-1.27c.06-.22.12-.46.16-.77.04.31.1.55.17.77l.42,1.27h-1.17Z"></path>
      <path d="M38.71,39.41c.6-.3,1.03-.85,1.03-1.78,0-1.63-1.27-2.11-2.55-2.11h-2.78v5.98h1.97v-1.77h.46l1.23,1.77h2.17l-1.53-2.09ZM37.15,38.25h-.76v-1.12h.76c.38,0,.61.23.61.56s-.22.56-.61.56"></path>
    </g>
    <g>
      <path d="M36.24,27.79c0,.98-.84.97-1.41.97h-2.81v4.92h8.06v-9.53s-1.13-2.31-3.88-4.16l-3.59,3.55s3.63,1.86,3.63,4.25"></path>
      <path d="M18.09,16.07c0-3.22,2.07-5.51,2.07-5.51l4.13,2.31c-1.97,2.48-1.55,5.05.74,5.05s2.22-2.09,2.22-2.34v-7.59h4.9v7.95c0,3.43-2.77,7.01-7.06,7.01-3.86,0-7-3.12-7-6.88"></path>
      <path d="M18.25,20.84h-2.11v2.36c0,5.38-2.96,5.85-4.67,5.83h-1.59v4.66h7.9c2.73-1.94,4.18-5.21,4.38-9.87-1.58-.59-2.93-1.64-3.91-2.98"></path>
      <path d="M25.09,24.33c-.34,0-.67-.02-1-.06v9.4h6.05v-11.01c-1.41,1.05-3.16,1.67-5.05,1.67"></path>
    </g>
  </g>
</svg>