<?xml version="1.0" encoding="UTF-8"?>
<svg id="Layer_1" xmlns="http://www.w3.org/2000/svg" version="1.1" viewBox="0 0 876.18 868.64">
  <!-- Generator: Adobe Illustrator 30.2.1, SVG Export Plug-In . SVG Version: 2.1.1 Build 1)  -->
  <defs>
    <style>
      .st0 {
        fill: #6e1320;
      }
    </style>
  </defs>
  <path class="st0" d="M875.29,144.86C874.93,67.38,808.2-.04,728.8,0L150.49.31C70.67.36,2.34,71.1,2.05,149.28L0,707.71c-.31,83.68,63.99,160.33,150.7,160.41l575.84.52c79.22.07,148.93-74.63,149.04-149.3l.6-382.7-.89-191.78h0ZM644.53,301.05c8.54,0,15.47,6.93,15.47,15.47s-6.93,15.47-15.47,15.47-15.47-6.93-15.47-15.47,6.93-15.47,15.47-15.47ZM385.02,211.1c18.31,0,33.15,14.84,33.15,33.15s-14.84,33.15-33.15,33.15-33.15-14.84-33.15-33.15,14.84-33.15,33.15-33.15ZM385.1,624.52c-11.12,0-20.13-9.01-20.13-20.13s9.01-20.13,20.13-20.13,20.13,9.01,20.13,20.13-9.01,20.13-20.13,20.13ZM811.48,452.01l-104.88.51c-15.99.08-29.71,13.04-29.95,28.73l-.57,36.78c-.26,16.72-15.7,28.9-31.92,28.64-16.26-.25-30.08-12.71-31.39-29.41-.56-7.18.56-13.97-.37-20.93-2.22-16.57-16.1-28.27-32.39-27.65-14.73.56-29.66,12.44-29.75,28.82l-.64,120.69c-.11,20.01-19.33,34.06-38.45,31.49-16.08-2.16-29.71-14.63-29.76-31.6l-.54-177.24c-.05-15.74-14.08-28.42-29.43-29.2-15.75-.8-31.99,11.32-32.12,27.52l-.74,91.98c-.11,14.19-10.64,25.41-22.41,29.43-14.15,4.83-28.1.43-36.73-10.21-5.4-6.66-8.88-13.4-8.35-23.49.91-17.47-13.5-32.84-31.58-32.86-15.69-.02-31.07,12.91-31.18,30.17l-.37,57.06c-.12,18.6-17.22,31.55-35.44,30.87-17.68-.66-32.99-13.81-33.06-31.91l-.35-96.56c-.06-16.84-13.61-30.98-30.73-31.05l-123.72-.51c-9.53-.04-16.02-8.92-15.89-17.28.12-8.1,6.46-17.02,15.94-17.06l123.94-.46c15.75-.06,30.18-13.21,30.27-29.16l.58-97.92c.11-18.4,15.82-31.99,33.64-32.47,15.83-.43,34.43,11.69,34.53,29.62l.82,143.78c.09,16.35,13.35,28.49,28.91,29.82,13.79,1.18,32.23-9.15,32.39-25.01l.95-91.66c.03-3.13-.36-5.67.77-8.08-.92-18.51,20.5-32.25,37.01-30.25,18.76,2.27,32.01,17.92,30.21,37.33-1.67,18.07,10.52,33.47,28.37,35.08,16.92,1.52,33.85-11.46,33.92-29.29l.23-57.88c.08-18.81,15.65-33.17,33.87-33.52,17.11-.33,34.4,12.96,34.48,31.55l.54,116.5c.07,14.2,10.44,25.78,24.11,28.98,18.53,4.33,38.16-9.4,38.31-28.35l.2-25.2c.14-18.29,16.63-31.48,34.22-30.05,17.58,1.43,29.88,15.98,29.55,34.21-.29,16.21,12.26,31.78,29.03,31.87l104.86.53c9.62.05,16.94,8.13,16.97,17.05.03,8.14-6.5,17.2-15.94,17.25h.03Z"/>
  <g>
    <circle cx="644.54" cy="316.53" r="15.47"/>
    <g>
      <circle cx="385.11" cy="604.4" r="20.13"/>
      <path d="M219.12,483.64l.35,96.56c.07,18.1,15.38,31.25,33.06,31.91,18.22.68,35.32-12.27,35.44-30.87l.37-57.06c.11-17.26,15.49-30.19,31.18-30.17,18.08.02,32.49,15.39,31.58,32.86-.53,10.09,2.95,16.83,8.35,23.49,8.63,10.64,22.58,15.04,36.73,10.21,11.77-4.02,22.3-15.24,22.41-29.43l.74-91.98c.13-16.2,16.37-28.32,32.12-27.52,15.35.78,29.38,13.46,29.43,29.2l.54,177.24c.05,16.97,13.68,29.44,29.76,31.6,19.12,2.57,38.34-11.48,38.45-31.49l.64-120.69c.09-16.38,15.02-28.26,29.75-28.82,16.29-.62,30.17,11.08,32.39,27.65.93,6.96-.19,13.75.37,20.93,1.31,16.7,15.13,29.16,31.39,29.41,16.22.26,31.66-11.92,31.92-28.64l.57-36.78c.24-15.69,13.96-28.65,29.95-28.73l104.88-.51h-.03c9.44-.05,15.97-9.11,15.94-17.25-.03-8.92-7.35-17-16.97-17.05l-104.86-.53c-16.77-.09-29.32-15.66-29.03-31.87.33-18.23-11.97-32.78-29.55-34.21-17.59-1.43-34.08,11.76-34.22,30.05l-.2,25.2c-.15,18.95-19.78,32.68-38.31,28.35-13.67-3.2-24.04-14.78-24.11-28.98l-.54-116.5c-.08-18.59-17.37-31.88-34.48-31.55-18.22.35-33.79,14.71-33.87,33.52l-.23,57.88c-.07,17.83-17,30.81-33.92,29.29-17.85-1.61-30.04-17.01-28.37-35.08,1.8-19.41-11.45-35.06-30.21-37.33-16.51-2-37.93,11.74-37.01,30.25-1.13,2.41-.74,4.95-.77,8.08l-.95,91.66c-.16,15.86-18.6,26.19-32.39,25.01-15.56-1.33-28.82-13.47-28.91-29.82l-.82-143.78c-.1-17.93-18.7-30.05-34.53-29.62-17.82.48-33.53,14.07-33.64,32.47l-.58,97.92c-.09,15.95-14.52,29.1-30.27,29.16l-123.94.46c-9.48.04-15.82,8.96-15.94,17.06-.13,8.36,6.36,17.24,15.89,17.28l123.72.51c17.12.07,30.67,14.21,30.73,31.05Z"/>
      <circle cx="385.03" cy="244.25" r="33.15" transform="translate(-59.94 343.8) rotate(-45)"/>
    </g>
  </g>
</svg>