<?xml version="1.0" encoding="UTF-8"?>
<svg id="Layer_1" xmlns="http://www.w3.org/2000/svg" version="1.1" viewBox="0 0 876.18 868.64">
  <!-- Generator: Adobe Illustrator 30.2.1, SVG Export Plug-In . SVG Version: 2.1.1 Build 1)  -->
  <defs>
    <style>
      .st0 {
        fill: #303030;
      }

      .st1 {
        fill: #6e1320;
      }
    </style>
  </defs>
  <path class="st0" d="M875.29,144.86C874.93,67.38,808.2-.04,728.8,0L150.49.31C70.67.36,2.34,71.1,2.05,149.28L0,707.71c-.31,83.68,63.99,160.33,150.7,160.41l575.84.52c79.22.07,148.93-74.63,149.04-149.3l.6-382.7-.89-191.78ZM850.58,719.3c-.05,29.65-13.79,60.71-37.71,85.21-24.26,24.86-55.69,39.12-86.22,39.12l-575.93-.53c-31.77-.03-62.04-12.87-85.22-36.16-25.88-25.99-40.64-62.13-40.5-99.15l2.05-558.42c.11-31.02,13.67-62.48,37.19-86.32,23.65-23.97,55.09-37.72,86.26-37.74l578.31-.31c31.63,0,61.89,12.82,85.26,36.1,22.88,22.79,36.08,53.36,36.22,83.88l.89,191.7-.6,382.62Z"/>
  <g>
    <circle class="st1" cx="385.1" cy="604.39" r="20.13"/>
    <circle class="st1" cx="644.53" cy="316.52" r="15.47"/>
    <path class="st1" d="M810.44,417.71l-104.86-.53c-16.78-.09-29.32-15.66-29.03-31.87.32-18.23-11.97-32.78-29.55-34.21-17.58-1.43-34.07,11.76-34.22,30.05l-.2,25.2c-.15,18.95-19.78,32.69-38.31,28.35-13.68-3.2-24.05-14.77-24.11-28.98l-.54-116.5c-.09-18.59-17.38-31.89-34.48-31.55-18.22.35-33.79,14.71-33.87,33.52l-.23,57.88c-.07,17.83-17,30.81-33.92,29.29-17.84-1.61-30.03-17-28.37-35.08,1.79-19.41-11.46-35.06-30.21-37.33-16.52-2-37.94,11.74-37.01,30.25-1.14,2.41-.74,4.95-.77,8.08l-.95,91.66c-.16,15.86-18.6,26.19-32.39,25.01-15.56-1.33-28.82-13.47-28.91-29.82l-.82-143.78c-.1-17.92-18.7-30.05-34.53-29.62-17.82.49-33.53,14.07-33.64,32.47l-.58,97.92c-.09,15.96-14.52,29.1-30.27,29.16l-123.94.46c-9.48.04-15.82,8.96-15.94,17.06-.13,8.36,6.37,17.24,15.89,17.28l123.72.51c17.12.07,30.66,14.21,30.73,31.05l.35,96.56c.07,18.09,15.38,31.24,33.06,31.91,18.21.68,35.32-12.26,35.44-30.87l.37-57.06c.11-17.26,15.49-30.19,31.18-30.17,18.08.02,32.49,15.39,31.58,32.86-.52,10.1,2.95,16.84,8.35,23.49,8.63,10.64,22.58,15.03,36.73,10.21,11.77-4.02,22.3-15.24,22.41-29.43l.74-91.98c.13-16.2,16.37-28.32,32.12-27.52,15.35.78,29.38,13.46,29.43,29.2l.54,177.24c.05,16.97,13.68,29.45,29.76,31.6,19.11,2.57,38.34-11.48,38.45-31.49l.64-120.69c.09-16.38,15.02-28.26,29.75-28.82,16.29-.62,30.17,11.09,32.39,27.65.93,6.95-.19,13.74.37,20.93,1.31,16.7,15.14,29.15,31.39,29.41,16.22.25,31.67-11.92,31.92-28.64l.57-36.78c.24-15.69,13.96-28.66,29.95-28.73l104.88-.51c9.44-.05,15.97-9.11,15.94-17.25-.03-8.92-7.35-17-16.97-17.05Z"/>
    <circle class="st1" cx="385.02" cy="244.24" r="33.15"/>
  </g>
</svg>