<?xml version="1.0" encoding="UTF-8"?>
<svg id="Layer_1" xmlns="http://www.w3.org/2000/svg" version="1.1" viewBox="0 0 129.18 50">
  
  <path d="M86.36,31.31s.03-.09,0-.14c-.2-.2-.74-.75-.94-.95-.03-.03-.08-.03-.13,0-.2.21-.75.76-.95.96-.03.04-.03.09,0,.12.2.21.74.77.94.96.04.03.09.03.13,0h.01c.19-.19.73-.75.93-.95"></path>
  <path d="M83.4,34.56c.32-.28,1.34-1.16,1.75-1.48.05-.05.08-.08.1-.07.03.01.01.08,0,.15-.06,1.36-.1,2.72-.1,4.05v1.37c.04.6.13.96.31,1.1.2.17.59.34,1.33.23h.09s.1-.02.11,0c.01.04-.09.09-.15.12v.02c-.59.29-1.09.45-1.55.47h-.25c-.43-.01-.85-.2-1.17-.5l-.1-.11s-.1-.1-.14-.17c-.23-.32-.34-.59-.36-1.08-.01-.48,0-3.05.03-3.82,0-.06,0-.14.02-.18t.08-.09"></path>
  <g>
    <path d="M82.48,36.02c-.37-2.09-1.98-2.31-2.66-2.31-1.07,0-1.97.39-2.46,1.07l-.13.16v-.21c.03-.62.04-1.23.08-1.85.19-3.76.58-6.66.69-7.45,0,0,.02-.1-.03-.12-.04-.03-.12.04-.12.04,0,0-1.72,1.46-1.71,1.46-.06.05-.17.15-.19.21-.04.07-.07.19-.08.31-.21,1.79-.36,3.65-.45,5.54-.06.95-.08,2.45-.1,3.77,0,.09.02.15.06.22.04.06.13.12.16.14l1.49.87s.1.05.13.04c.03,0,.04-.03.04-.13v-.54c0-1.26.91-2.21,2.08-2.21.81,0,1.31.33,1.43,1,.08.45-.03.96-.3,1.38-.51.73-1.18,1.23-2.82,1.26-.77.01-3.12-.19-3.79-1.54-.04-.08-.07-.12-.09-.19-.02-.05-.06-.15-.09-.15-.03,0-.05.04-.05.13,0,.04-.03.14-.03.17-.06.4-.25.93-.55,1.17-.31.27-1.01.3-1.56.22-.25-.04-.73-.13-1.2-.28l-.08-.03.03-.06c.47-1.18.49-2.55.05-3.27-.43-.73-1.21-1.21-2.06-1.31-.84-.09-2.07.04-2.73.57-.34.26-.46.93-.5,1.37-.01.09-.01.18.02.18.02.02.08-.03.14-.09.3-.25.82-.59,1.38-.7.67-.12,1.26.02,1.55.18.75.41.87,1.13.9,1.35.03.22.02.45-.03.7l-.02.12-.09-.09c-.96-.92-1.59-1.19-2.44-1.06-.41.07-.89.31-1.26.76-.21.2-.77,1-1.29,1.2-1.03.42-5.48.23-6.12-.18-.38-.23-.33-.83-.31-1.04v-.02c0-.14.09-1.39.11-2.06.03-.49-.06-.84-.24-1.03-.21-.2-.53-.27-.76-.27-.21,0-.56.09-1.01.48-1.32,1.15-1.9,2.01-2.15,2.42-.04.05-.08.13-.11.14-.07.03-.07-.08-.07-.13,0-.96.11-3.57.11-3.7.2-3.77.57-6.66.69-7.46v-.02c.01-.06.02-.13,0-.13-.05-.02-.09.02-.1.03,0,0-1.76,1.51-1.76,1.5-.06.05-.16.16-.18.21-.03.06-.07.18-.08.31v.05c-.16,1.37-.38,3.25-.46,5.48-.13,3.57-.11,5.32-.07,7.15.01.47.25.61.39.64.04.01.47.12.64-.22,1.01-1.96,1.78-3.04,3.17-4.47.05-.06.14-.12.23-.1.1.03.09.12.09.24l-.05.59c-.02.26-.03.5-.05,1.07-.02.57.03,1.93.93,2.44.94.53,5.6.43,5.6.43,1.5.02,1.75-.28,2.05-.63.14-.16.23-.35.32-.56.31.77,1.06,1.11,1.1,1.13,0,0,.41.17,1.08.2.51.01,1.08-.13,1.63-.42.16-.09.39-.25.63-.46l.05-.04.04.04c.2.16.44.32.72.48.71.4,2.05.35,2.05.35,1.31-.04,1.77-.64,1.87-1.01.02-.08.04-.18.06-.28.16.38.36.62.6.82.8.67,2.05.75,3.27.72,1.43-.02,2.7-.63,3.17-1.01,1.52-1.23,1.68-2.93,1.56-3.67M68.12,38.6c-.45.34-1.01.49-1.54.41-.67-.09-1.06-.38-1.04-.78.02-.43.33-.66.92-.69.44-.03.99.29,1.66.95l.06.05-.06.05"></path>
    <g>
      <path d="M19.27,25.35s.08-.07.12-.04c.03.02.02.12.02.12-.11.79-.49,3.68-.69,7.45-.03.61-.05,1.23-.07,1.85v.21s.11-.16.11-.16c.51-.68,1.41-1.06,2.48-1.07.68,0,2.29.22,2.66,2.31.12.73-.04,2.44-1.56,3.67-.47.38-1.74,1-3.17,1.01-1.22.03-2.47-.06-3.26-.72-.45-.38-.82-.89-.92-2.32,0-.12-.02-.26-.02-.4,0-.17,0-.25.02-.38,0-.09.02-.12.06-.11.02,0,.04.07.06.12.02.07.06.16.11.23.68,1.35,3.01,1.55,3.79,1.54,1.63-.03,2.31-.52,2.8-1.26.28-.41.39-.93.3-1.38-.13-.67-.61-1-1.43-1-1.18,0-2.07.95-2.07,2.21v.17s-.01.37-.01.37c0,.1-.02.12-.04.13-.04,0-.08-.01-.14-.04l-1.47-.87s-.13-.08-.17-.14c-.05-.06-.05-.12-.05-.21.01-1.32.03-2.82.08-3.77.1-1.89.25-3.74.46-5.54.02-.12.05-.25.08-.31.03-.05.13-.16.19-.21,0,0,1.72-1.46,1.72-1.46"></path>
      <path d="M49.04,29.19c-.71-1.11-1.71-1.89-3.15-2.46-.7-.28-1.52-.42-2.6-.44,0,0-1.24-.03-1.92-.08-.41-.04-.69-.18-.89-.32-.11-.08-.14-.15-.21-.15-.08.01-.08.21-.09.38-.1,1.24-.42,5.4-.48,6.42-.04.95-.06,2.45-.07,3.78,0,.09,0,.15.05.22.03.05.13.12.16.14l1.49.87s.09.05.13.03c.03-.01.04-.06.04-.16v-.49s.04-2.24.04-2.24l.02-.31c.01-.56.03-1.26.06-1.82.04-.93.12-1.88.19-2.8h0c.01-.23.05-.62.21-.87.23-.36.51-.44.76-.51.29-.06,1.06-.15,2.21.3.87.34,1.66.94,2.1,1.57.33.49.61,1.13.71,1.67.14.78.19,2.48-.54,3.93-.63,1.22-1.65,2.01-3.08,2.38-.44.11-1.1.19-1.91.21-.79,0-3.86-.39-4.52-2-.07-.16-.08-.24-.16-.24s-.1.09-.13.24c-.07.42-.2.86-.32,1.07-.16.29-.39.95-2.72.91-1.64-.03-2.32-.05-2.94-.43-.27-.18-.31-.53-.31-.78,0-.11.16-3.21.19-3.58.01-.12.02-.21-.04-.24-.06-.02-.12.04-.2.11-.3.26-.83.7-1.14.99-.14.11-.2.15-.24.23-.03.08-.06.16-.06.29-.05,1-.15,3.09-.15,3.09l-.02.02c-.31.21-.97.33-1.27.35-.31.01-1.44.02-2.15-.45-.24-.15-.39-.35-.44-.6-.06-.32-.02-.62.13-.9.22-.35,1.23-1.83,1.23-1.83.1-.16.1-.21.08-.29-.02-.1-.1-.15-.16-.21-.13-.11-.36-.25-.63-.44,0,0-.19-.12-.24-.15-.08-.06-.18-.06-.24.03-.3.29-1.36,1.93-1.27,3.74.05,1.06.43,1.81.92,2.26.49.45,1.33.95,2.72.89.67-.03,1.27-.29,1.79-.76l.05-.05.05.05c.12.15.25.25.39.33.94.53,3.05.53,4.17.53,2.41-.02,3.15-.76,3.37-1.43.14.26.3.45.48.62.91.82,2.78.97,3.81.97,1.56.01,3.02-.18,3.91-.55.82-.33,1.8-.82,2.7-2,.91-1.18,1.4-2.86,1.38-4.72-.01-1.79-.33-2.88-1.26-4.32"></path>
      <path d="M15.41,36.22c.26-.37.64-1.11.13-2.22-.51-1.11-1.57-1.69-3.15-1.55-.36-1.55-1.47-6.19-1.48-6.28-.02-.09-.1-.3-.23-.37-.14-.08-.33-.09-.44-.09-.17,0-.67.02-.93.25-.28.23-.39.46-.55.85-.28.66-.75,1.72-1.35,3.04-.41.88-.88,1.89-1.4,3.02-.65,1.4-2.33,4.68-2.5,5-.12.22-.28.4-.52.55-.23.15-.83.2-1.15.04-.5-.24-.7-.52-.82-.91-.07-.23-.06-.54-.04-.58.03-.58.48-1,.51-1.04.04-.03.06-.06.06-.09,0-.04-.05-.04-.1-.02-.66.2-1.36.87-1.44,1.74,0,.06-.01.12-.01.17,0,.85.54,1.76,1.34,2.21.45.25,2.2.97,3.22-.12.35-.37.73-1.01,1.24-2.05.51-1.03,1.73-3.56,1.93-4,.21-.43,1.37-2.88,1.96-4.08l.09-.16.67,3.36c-1.43.55-2.06,1.38-2.32,2.55-.31,1.27.86,3.07,3.8,4.47.26.14,1.55.6,1.78.63.44.05.5-.15.52-.26.04-.15-.06-.53-.13-.82-.09-.38-.94-3.74-1.26-5.16.85-.05,1.55.11,1.96.65.35.45.42.92.43,1.2,0,.17,0,.19.02.2.03.01.07-.02.16-.14M11.38,37.46h.01c-.08-.03-.97-.52-1.42-1.02-.33-.39-.58-.74,0-1.29.18-.15.46-.3.86-.45.19.98.56,2.75.56,2.75"></path>
      <path d="M26.99,31.99c.2-.2.53-.58.69-.77.05-.05.06-.08.1-.08.05,0,.07.03.11.07.24.19.63.52.76.64.11.1.4.43.43.99.02.13,0,.26-.03.4-.08.45-.27.86-.4,1.08-.02.04-.06.11-.1.1-.04-.01-.04-.09-.03-.15,0-.06,0-.08,0-.16-.02-.29-.1-.66-.38-.96-.26-.27-.83-.69-1.14-.91-.05-.04-.07-.06-.08-.11,0-.04.01-.05.06-.13"></path>
      <path d="M61.62,35.77s.03-.1,0-.14c-.2-.2-.75-.75-.94-.94-.04-.04-.09-.04-.13,0-.19.2-.76.76-.95.96-.03.03-.03.09,0,.13.2.2.75.75.95.95.04.04.09.04.13,0,.19-.2.74-.75.94-.95"></path>
      <path d="M118.02,45.01c-2.69,1.01-7.07,1.81-11.06.75-.88-.23-1.51-.49-2-.7,4.67,4.17,9.2,5.96,12.07,4.36,3.69-2.06,6.98-5.63,9.38-9.95-2.37,2.8-5.65,4.52-8.39,5.54"></path>
      <path d="M107.38,18.53c1.23.64,1.03,2.4,1.46,3.95.43,1.54,1.68,1.67,1.68,1.67,0,0,2.57-5.02.38-9.09-2.2-4.07-5.8-2.65-6.71-2.21-1.22.59-5.9,3.65-8.25,10.08-2.32,6.37,1.03,8.55,3.1,8.92,2.06.36,5.25-1.76,5.35-2.85.06-.57-.37-.93-.98-1.07-.62-.14-2.3.22-3.37-1.07-1.32-1.59.95-5.11,2.21-6.36,1.31-1.29,3.24-2.97,5.14-1.97"></path>
      <path d="M129.09,22.91v-.08c-.15-1.33-.51-2.64-.81-2.66-1.22-.07-2.92,8.85-3.89,13.82-.1.51-.15,1.01-.45,1.54-.23.43-.35.59-.51.76-.17.2-.45.39-.38.02,2.24-12.02,3.67-18.47,4.97-21.07.14-.28.29-.45.45-.52-.25-.57-.52-1.13-.82-1.69C120.66.16,102.05-3.02,91.65,2.8c-4.51,2.54-4.11,14.57,1.93,26.79-.57-3.42.21-6.46,1.89-9.98,2.26-4.76,9.48-11.64,14.91-9.52,4.63,1.81,2.85,9.21,2.85,9.21,0,0,3.22-4.36,5.79-4.5,1.35-.07,3.67.94.88,5.56-3.27,5.41-8.72,7.83-10.63,6.7-1.68-.99-1.71-2.92-1.82-3.44-.11-.51-.38-2.24-1.95-2.36-1.56-.13-4.38,2.07-4.03,3.06.31.85,2.37.18,3.32.78.96.61,1.32,1.52.98,3.12-1.02,4.78-4.94,7.64-7.67,6.96-.65-.16-1.28-.41-1.84-.76.84,1.37,1.72,2.66,2.62,3.87l.81-1.4s.07-.07.12-.07c1.6.06,3.5-.57,4.39-1.31-.7,2.32-1.63,3.81-4.77,3.51.03.05.07.09.1.14.59.3,1.27.6,2.08.91,4.69,1.81,8.87-.59,9.61-1.08.58-.39,2.95-1.81,3.96-3.73-.39.06-.78.08-1.2.06-.3-.02-.59-.05-.68-.05-.47-.02-2.93-.41-1.33-4.18.29-.68,1.36-3.28,2.9-2.71.45.17,1.61.6,1.98,2.43.06.31.11.61.14.92,1.46-.92,2.6-2.38,2.88-4,.27-1.55-.08-2.34-.51-2.41-.58-.1-1.63,2.84-1.79,2.75-.16-.09,0-.49.13-.93,1-3.44,2.47-4.74,2.97-4.75.49,0,1.16,1.58,1.16,3.69.01,3.32-1.92,7.16-4.93,8.63-.27,1.55-.86,2.9-1.58,3.83-2.03,2.61-6.37,5.3-11.92,4.03-.47-.11-.92-.24-1.34-.37.49.53.97,1.05,1.46,1.53.19.05.55.12,1.23.24,2.35.4,7.37.51,12.51-1.38,5.94-2.19,7.79-5.5,9.14-7.78,2.84-4.85,2.91-10.3,2.67-11.89M119.1,12.08c-.3.31-1.15,1.17-1.45,1.47-.06.06-.14.06-.2,0-.31-.3-1.15-1.16-1.46-1.47-.04-.06-.04-.15,0-.2.29-.3,1.17-1.18,1.46-1.48.06-.05.14-.05.2.01.3.3,1.14,1.14,1.45,1.46.05.06.05.16,0,.22M110.34,30.36c-.31.31-1.15,1.17-1.45,1.47-.06.06-.14.06-.2,0-.31-.31-1.15-1.16-1.47-1.47-.04-.06-.04-.15,0-.21.29-.3,1.17-1.18,1.47-1.48.06-.05.14-.05.2.01.3.3,1.14,1.14,1.45,1.46.05.06.05.16,0,.22M121.98,36.01c-.31.31-1.15,1.17-1.45,1.47-.06.06-.14.06-.2,0-.31-.3-1.15-1.16-1.47-1.47-.04-.06-.04-.15,0-.2.29-.31,1.17-1.18,1.47-1.48.06-.05.14-.05.2.01.3.3,1.14,1.14,1.45,1.46.05.06.05.16,0,.22"></path>
      <path d="M114.42,29.89c-.86-.19-1.9,2.55-.82,2.79.12.03.28.04.46.03.53-.03,1.06-.15,1.57-.32-.08-1.62-.51-2.34-1.21-2.5"></path>
      <path d="M119.16,18.01c-.79-.85-3.28.36-4.91,2.22-1.41,1.62-2.29,4-2.29,4,.35-.04,2.85-1.27,5.06-3.03.86-.69,2.93-2.34,2.14-3.19"></path>
    </g>
  </g>
</svg>