<?xml version="1.0" encoding="UTF-8"?>
<svg id="Layer_1" xmlns="http://www.w3.org/2000/svg" version="1.1" viewBox="0 0 82.42 50">
  
  <path d="M35.47,19.57l5.51-9.53,5.5,9.53h-11.01Z"></path>
  <path d="M35.47,0l5.51,9.53L46.48,0h-11.01Z"></path>
  <path d="M23.4,28.97v5.8c0,.9-.57,1.06-1.03,1.09-.09,0-7.49.01-12.36.01.36-.56.44-1.14.46-1.75v-.22s0-.22,0-.22c-.02-.74-.12-1.44-.72-2.1-.87-.97-2.5-1.29-3.78-1.29-.6,0-1.2.06-1.78.2-.41.1-.93.26-1.46.61-1.14.77-1.31,1.7-1.34,2.58v.44c.03.88.2,1.81,1.34,2.58.53.35,1.05.51,1.46.61.46.11.94.17,1.41.19h0s17.27,0,17.27,0c.81-.02,1.71-.13,2.29-1,.22-.34.36-.74.38-1.15v-6.39h-2.12,0ZM3.48,33.91c.02-.68.21-1.26.95-1.61.68-.32,1.29-.3,1.91-.28.8.07,1.32.29,1.65.67.18.21.34.45.36,1.07,0,.11,0,.2,0,.29-.02.62-.18.86-.36,1.07-.34.38-.85.6-1.65.67-.62.02-1.23.05-1.91-.28-.74-.35-.93-.93-.95-1.61"></path>
  <path d="M80.57,33.91v-.22c-.03-.74-.13-1.44-.73-2.1-.87-.97-2.5-1.29-3.78-1.29-.6,0-1.2.06-1.78.2-.41.1-.93.26-1.46.61-1.14.77-1.31,1.7-1.34,2.58v.44c.02.58.1,1.18.48,1.74h-9.99c-.77-.02-1.33-.26-1.67-.65-.2-.23-.37-.5-.36-1.29,0,0,0-3.58,0-3.58h-2.11v3.54c.02.84-.16,1.11-.36,1.35-.33.38-.9.63-1.67.66,0,0-10.42,0-10.54,0-.47-.04-1.03-.2-1.04-1.09v-5.82h-2.12v6.36c.02.4.16.81.38,1.14.58.87,1.48,1.01,2.29,1.03h11.14c1.15,0,2.08-.26,2.98-1.01,0,0,0,0,0,0,.91.74,1.6.99,2.75.99,0,0,14.23.02,14.41.02,1.28,0,2.91-.32,3.78-1.29.6-.66.7-1.36.73-2.1v-.22s0,0,0,0ZM78.47,34.05c-.02.62-.18.86-.36,1.07-.33.38-.85.6-1.65.67-.62.02-1.23.05-1.92-.28-.74-.36-.93-.93-.95-1.61.02-.68.21-1.25.95-1.61.68-.32,1.29-.3,1.92-.27.8.07,1.32.29,1.65.67.18.21.34.44.36,1.07,0,.11,0,.2,0,.3"></path>
  <path d="M38.94,31.68c-.88-.98-2.53-1.31-3.83-1.31-.61,0-1.21.06-1.8.2-.41.1-.94.27-1.48.62-.97.66-1.24,1.42-1.32,2.18h2.19c.12-.41.37-.74.87-.98.69-.33,1.31-.3,1.94-.28.81.07,1.33.29,1.67.68.21.24.39.52.36,1.38v1.72h-9.64v1.62h11.78v-3.27c-.01-.91-.01-1.77-.74-2.57"></path>
  <path d="M3.63,28.93c0,.26.08.47.36.6.25.12.48.11.71.1.3-.03.49-.11.61-.25.07-.08.13-.17.13-.4v-.11c0-.23-.07-.32-.13-.4-.12-.14-.32-.22-.61-.25-.23-.01-.46-.02-.71.1-.28.13-.35.34-.36.6"></path>
  <path d="M6.39,28.93c0,.26.08.47.36.6.25.12.48.11.71.1.3-.03.49-.11.61-.25.07-.08.13-.17.13-.4v-.11c0-.23-.07-.32-.13-.4-.13-.14-.32-.22-.61-.25-.23-.01-.46-.02-.71.1-.28.13-.35.34-.36.6"></path>
  <path d="M58,38.92c0,.26.08.47.35.6.25.12.48.11.71.1.3-.03.49-.11.61-.25.07-.08.13-.17.13-.4v-.11c0-.23-.07-.32-.13-.4-.12-.14-.32-.22-.61-.25-.23,0-.46-.02-.71.1-.28.13-.35.35-.35.6"></path>
  <path d="M30.85,45.13c.26-.07.72-.22,1.07-.67.31-.42.34-.91.33-1.16,0-.3-.04-.73-.33-1.16-.57-.82-1.64-.85-2.51-.87h-2.47c-.88.01-1.97.01-2.63,1-.25.38-.35.76-.38,1.26v6.18h5.8c.83-.01,1.91-.01,2.57-1,.28-.42.38-.93.38-1.42,0-1.69-1.3-2.01-1.83-2.15M26.02,43.81c.03-.89.63-1.05,1.09-1.08h2.1c.33,0,1.02.01,1.02.91,0,.1,0,.66-.5.86-.19.07-.43.08-.68.08h-3.03v-.78h0ZM29.19,48.23h-3.17v-2.17h3.43c.31,0,1.11,0,1.11,1.02,0,1.16-.9,1.15-1.38,1.15"></path>
  <path d="M20.12,46.24c.03.85-.16,1.12-.36,1.36-.33.38-.85.6-1.65.67-.62.02-1.23.05-1.91-.28-.8-.38-.96-1.02-.96-1.77v-4.96h-2.11v4.91c0,1,.01,2.12,1.34,3.01.53.35,1.05.51,1.46.61.59.14,1.18.2,1.78.2,1.28,0,2.91-.32,3.78-1.29.72-.79.72-1.64.73-2.54v-4.91h-2.11v4.98"></path>
  <path d="M39.59,41.27h-2.29l-4.08,8.45h2.31l.72-1.59h4.33l.72,1.59h2.37l-4.08-8.45h0ZM36.94,46.63l1.49-3.43,1.47,3.43h-2.97Z"></path>
  <path d="M78.34,41.27h-2.29l-4.08,8.45h2.31l.72-1.59h4.33l.72,1.59h2.37l-4.08-8.45ZM75.68,46.63l1.5-3.43,1.47,3.43h-2.96,0Z"></path>
  <path d="M66.69,47.02v-5.75h-2.12v6.3c.02.4.16.81.38,1.14.57.87,1.48.98,2.29,1h3.62v-1.56s-3.01,0-3.14-.01c-.47-.04-1.03-.23-1.03-1.13"></path>
  <path d="M59.89,41.27h-2.29l-4.08,8.45h2.31l.72-1.59h4.33l.72,1.59h2.37l-4.08-8.45h0ZM57.24,46.63l1.49-3.43,1.47,3.43h-2.97Z"></path>
  <path d="M49.91,41.31c-.31-.04-.62-.04-.93-.05h-4.62v6.24c.02.42.15.85.39,1.2.66.99,1.74.99,2.63,1.01h1.34c1.28-.01,2.87-.02,4.06-1.57.59-.78.83-1.73.83-2.7,0-2.18-1.22-3.9-3.68-4.13M50.97,47.39c-.56.8-1.42.81-2.18.82h-1.09c-.49,0-1.24-.09-1.24-1.15v-4.3s2.44,0,2.44,0c.73.01,1.62.03,2.17.9.24.38.42.93.42,1.74,0,1.06-.26,1.65-.51,2"></path>
  <path d="M8.28,41.27l-2.6,6.42-2.63-6.42H0v8.45h2v-6.56l2.7,6.56h1.93l2.68-6.53v6.53h2v-8.45h-3.03"></path>
</svg>