<?xml version="1.0" encoding="UTF-8"?>
<svg id="Layer_1" xmlns="http://www.w3.org/2000/svg" version="1.1" viewBox="0 0 142.31 50">
  
  <path d="M142.31,49.79l-57.56.06L113.62.08l28.7,49.7ZM126.19,42.01l-12.61-22.85-12.55,22.82h25.16v.03Z"></path>
  <path d="M50,25c0,13.81-11.19,25-25,25S0,38.81,0,25,11.19,0,25,0s25,11.19,25,25ZM39.46,25c0-7.97-6.46-14.44-14.44-14.44s-14.44,6.46-14.44,14.44,6.46,14.44,14.44,14.44,14.44-6.46,14.44-14.44Z"></path>
  <polygon points="70.69 10.62 70.33 49.66 57.94 49.72 57.99 .06 92.31 .08 92.8 10.03 70.69 10.62"></polygon>
</svg>