<?xml version="1.0" encoding="UTF-8"?>
<svg id="Layer_1" xmlns="http://www.w3.org/2000/svg" version="1.1" viewBox="0 0 88.05 50">
  
  <defs>
    
  </defs>
  <path class="st0" d="M27.02,34.4c-.86-.15-1.61-.4-2.24-.76s-1.14-.8-1.5-1.36c-.37-.55-.55-1.22-.55-2.02v-2.18c0-.3,0-.59.02-.87.01-.28.02-.57.02-.87,0-.9,0-1.64-.02-2.2s-.03-.98-.06-1.26c.31.03.63.04.96.06.33.02.65.03.96.03s.63,0,.96-.03c.33-.01.65-.04.96-.06-.16,1.08-.25,2.09-.28,3.03-.03.93-.04,1.88-.04,2.84,0,1.01.1,1.84.3,2.46.2.63.5,1.11.89,1.45.4.35.88.57,1.45.68.57.11,1.24.17,1.99.17.93,0,1.65-.17,2.18-.51.53-.33.92-.78,1.19-1.34.27-.56.44-1.19.49-1.92.06-.72.09-1.48.09-2.26s-.01-1.54-.05-2.31c-.03-.76-.08-1.53-.15-2.3.22.03.42.04.63.06.2.02.38.03.55.03.2,0,.4,0,.58-.03.19-.01.38-.04.58-.06-.03.24-.06.57-.08.99-.03.41-.06.89-.09,1.43-.03.55-.06,1.14-.07,1.8-.03.65-.03,1.35-.03,2.07,0,1.95-.58,3.34-1.74,4.18-1.17.85-2.87,1.27-5.12,1.27-.99,0-1.92-.08-2.78-.22"></path>
  <path class="st0" d="M84.41,25.06c-.03-.72-.09-1.44-.15-2.17.26.03.55.04.86.06.31.02.65.03,1.04.03s.73,0,1.04-.03c.31-.01.6-.04.86-.06-.05.72-.1,1.45-.12,2.17-.03.72-.04,1.54-.04,2.47v2.28c0,.93.01,1.75.04,2.48.03.72.07,1.42.12,2.12-.26-.02-.55-.03-.86-.03h-2.08c-.31,0-.6.01-.86.03.06-.69.12-1.4.15-2.12.03-.72.05-1.55.05-2.48v-2.28c0-.93-.02-1.75-.05-2.47"></path>
  <path class="st1" d="M14.42,25.7c-.44-.7-1.05-1.25-1.83-1.67-.79-.41-1.73-.71-2.83-.89-1.09-.17-2.3-.26-3.64-.26-1.02,0-1.85.01-2.49.04s-1.21.04-1.72.04c-.39,0-.74,0-1.05-.03-.31-.01-.6-.04-.86-.06.05.6.1,1.19.13,1.78.76-.51,3.1-.7,3.55-.73h0c.35-.03.71-.05,1.05-.07.35-.01.8-.03,1.36-.03.8,0,1.53.1,2.17.31s1.21.51,1.67.89c.46.38.83.85,1.08,1.4s.38,1.17.38,1.85c0,1.74-.51,3.04-1.53,3.9-1.02.86-2.41,1.29-4.15,1.29-.48,0-.88-.01-1.21-.02-.32-.02-.6-.03-.83-.04,0-.08,0-.25-.02-.51-.01-.27-.03-.56-.03-.89v-5.67l-.02-1c0-.33.01-.63.03-.9,0-.07.01-.13.01-.19-.49.53-2.78,2.7-3.46,3.33v2.21c0,.93-.02,1.75-.05,2.48-.03.72-.08,1.42-.15,2.12.26-.02.55-.03.86-.03h1.05c.61,0,1.31,0,2.14.01.82,0,1.81.01,2.98.01,1.1,0,2.14-.14,3.1-.42.97-.28,1.82-.68,2.56-1.21s1.31-1.17,1.74-1.92c.42-.74.64-1.58.64-2.51,0-1.06-.22-1.94-.65-2.64"></path>
  <path class="st1" d="M76.74,32.02c-.55-.94-3.99-7.24-4.98-9.19-.23-.4-.86-1.65-.9-1.65-.01,0-.67,1.34-.87,1.65-1.4,2.62-5.57,9.85-5.89,10.36-.31.51-.56.92-.74,1.21.22-.02.42-.03.61-.03h1.1c.18,0,.37.01.55.03.22-.55.46-1.1.72-1.67.26-.56,2.89-5.59,3.65-6.66,1.12,1.78,3.18,6.11,3.44,6.66.26.57.52,1.12.77,1.67.33-.02.65-.03.99-.03h1.98c.33,0,.69.01,1.06.03-.45-.65-.94-1.44-1.49-2.37"></path>
  <path class="st1" d="M53.54,32.2c-.13.28-.32.51-.56.71-.24.19-.51.34-.81.44-.31.1-.64.15-.98.15-.26,0-2.18,0-2.37-.01-.19,0-.38,0-.6-.02-.04-2.27-.07-7.43.04-9.56.15-.03.3-.04.43-.04.13,0,2.06,0,2.41,0,.47,0,.85.06,1.17.16s.56.25.77.42c.21.17.34.38.42.62.09.24.13.49.13.76,0,.36-.08.67-.23.94-.16.27-.36.49-.61.66s-.53.3-.85.4c-.32.09-.64.13-.97.13h-1.73v.97c.62,0,1.53,0,1.68,0,.94,0,1.65.19,2.14.58.49.38.73.96.73,1.74,0,.37-.07.69-.21.97h.03ZM56.94,29.82c-.3-.35-.67-.64-1.1-.86-.43-.22-.89-.39-1.37-.49-.48-.11-.9-.17-1.25-.18v-.03c.35-.04.76-.13,1.2-.25s.86-.29,1.24-.51c.38-.22.7-.49.97-.82.26-.33.4-.72.4-1.19s-.12-.85-.33-1.19c-.22-.33-.55-.6-.97-.8s-.91-.37-1.49-.46c-.57-.1-1.21-.15-1.9-.15s-3.06.01-3.79.04-1.42.04-2.09.04c-.39,0-.74,0-1.05-.03-.31-.01-.6-.04-.86-.06.07.72.12,1.45.15,2.17.03.72.05,1.54.05,2.47v2.28c0,.93-.02,1.75-.05,2.48-.03.72-.08,1.42-.15,2.12.26-.02.61-.03,1.05-.03h1.28c.59,0,1.15,0,1.68.01.53,0,2.81.01,3.42.01.7,0,1.37-.05,2.01-.16.65-.1,1.22-.29,1.73-.56.51-.27.9-.62,1.21-1.04.3-.42.45-.94.45-1.54,0-.5-.15-.93-.45-1.28"></path>
  <path d="M70.86,21.16l-7.43-12.43,6.9,6.57L83.7,0l-12.84,21.16"></path>
  <path d="M16.17,46.31c-.27-.01-.54-.01-.81-.01s-.54,0-.81,0c-.27,0-.54.02-.81.03v.61c0,.59,0,1.12.02,1.58.01.46.04.9.07,1.35-.12-.02-.25-.03-.4-.03h-.96c-.15,0-.28,0-.4.03.03-.44.05-.89.07-1.35.01-.46.03-.99.03-1.58v-1.46c0-.59-.01-1.12-.03-1.58-.01-.46-.04-.92-.07-1.39.12.02.25.03.4.04.14.01.3.02.48.02s.34,0,.48-.02c.14-.01.28-.03.4-.04-.04.46-.06.92-.08,1.37-.01.46-.01.97-.01,1.57.19.01.41.01.67.02.26,0,.58,0,.97,0s.7,0,.94,0c.24,0,.47,0,.67-.02,0-.59,0-1.11-.03-1.57-.02-.46-.04-.91-.06-1.37.12.02.25.03.39.04.15.01.3.02.49.02s.33,0,.48-.02c.14-.01.28-.03.4-.04-.03.46-.06.93-.07,1.39-.01.46-.02.99-.02,1.58v1.45c0,.59,0,1.12.02,1.58.01.46.04.91.07,1.35-.12-.02-.25-.03-.4-.03h-.97c-.14,0-.27,0-.39.03.03-.44.04-.89.06-1.35.01-.46.03-.99.03-1.58v-.61c-.28,0-.55-.01-.81-.03"></path>
  <path d="M28.66,44.73c-.12-.37-.27-.68-.47-.94-.21-.26-.45-.46-.74-.59s-.6-.21-.94-.21c-.37,0-.69.09-.97.26-.29.17-.53.41-.73.71-.2.3-.35.65-.46,1.05-.1.4-.15.83-.15,1.28,0,.57.06,1.05.18,1.44s.29.71.49.94.44.41.71.51.55.16.85.16c.32,0,.62-.07.92-.21.29-.13.55-.34.76-.62s.39-.63.52-1.05.21-.93.21-1.51c0-.46-.06-.88-.17-1.24h0ZM22.74,44.72c.19-.47.47-.87.83-1.21s.79-.62,1.3-.82,1.06-.3,1.68-.3c.57,0,1.1.08,1.59.24s.92.39,1.28.71c.36.31.65.71.86,1.19.21.48.32,1.04.32,1.68,0,.53-.1,1.03-.31,1.49s-.48.87-.85,1.21c-.35.35-.79.62-1.28.81-.5.19-1.05.29-1.65.29-.56,0-1.09-.07-1.58-.21-.5-.13-.93-.37-1.3-.67s-.66-.71-.87-1.18-.32-1.05-.32-1.73c0-.53.1-1.02.3-1.48"></path>
  <path d="M34.45,43.9c-.01-.46-.04-.92-.07-1.39.12.02.25.03.4.04s.3.02.48.02.34,0,.48-.02c.14-.01.28-.03.4-.04-.03.46-.05.92-.07,1.39-.01.46-.02.99-.02,1.58v1.45c0,.4,0,.8,0,1.17,0,.38.01.71.02.99.4,0,.81-.01,1.22-.03.4-.02.81-.05,1.22-.1-.01.08-.03.15-.03.21s-.01.15-.01.26,0,.21.01.27c0,.06.02.12.03.16-.19-.01-.43-.01-.71-.02-.28,0-.67,0-1.16,0h-1.69c-.16,0-.28,0-.36,0-.08,0-.15,0-.21.02.03-.44.06-.89.07-1.35s.02-.99.02-1.58v-1.46c0-.59,0-1.12-.02-1.58"></path>
  <path d="M43.95,47.72v1.21c0,.17,0,.28,0,.33.11,0,.23.01.38.01.15,0,.33.01.55.01.8,0,1.44-.28,1.9-.82.47-.55.71-1.38.71-2.49,0-.44-.06-.83-.18-1.19s-.28-.65-.49-.89c-.21-.24-.47-.43-.77-.56-.3-.13-.63-.2-1-.2-.26,0-.46,0-.62.01s-.32.03-.48.04c0,.05,0,.16,0,.33v4.19h0ZM42.35,43.9c-.01-.46-.03-.92-.07-1.39.12.02.25.03.39.04.15.01.3.02.48.02.23,0,.49-.01.79-.03.3-.03.67-.03,1.14-.03.62,0,1.17.06,1.67.17.5.11.93.3,1.3.56.36.26.64.62.84,1.06.2.45.3,1.01.3,1.68,0,.6-.1,1.12-.3,1.6-.19.48-.46.89-.8,1.22-.33.34-.72.6-1.17.78-.44.18-.92.27-1.42.27-.53,0-.99,0-1.37-.01s-.7-.01-.98-.01h-.48c-.14,0-.28,0-.39.03.03-.44.05-.89.07-1.35.01-.46.02-.99.02-1.58v-1.46c0-.59,0-1.12-.02-1.58"></path>
  <path d="M53.04,43.9c-.01-.46-.04-.92-.07-1.39.12.02.26.03.4.04s.3.02.48.02.34,0,.48-.02c.14-.01.28-.03.4-.04-.03.46-.05.93-.06,1.39-.01.46-.03.99-.03,1.58v1.46c0,.59,0,1.12.03,1.58.01.46.04.91.06,1.35-.12-.02-.25-.03-.4-.03h-.96c-.14,0-.28,0-.4.03.03-.44.05-.89.07-1.35.01-.46.03-.99.03-1.58v-1.46c0-.59,0-1.12-.03-1.58"></path>
  <path d="M58.99,43.41c-.01-.33-.03-.63-.03-.89.2.04.36.06.48.06s.28-.02.48-.06c.78.86,1.54,1.72,2.3,2.54.76.83,1.53,1.68,2.33,2.55v-3c0-.35,0-.65-.01-.94,0-.29,0-.53-.01-.74-.01-.21-.03-.35-.04-.42.2.04.37.06.48.06s.28-.02.48-.06c-.04.65-.07,1.23-.09,1.76-.03.52-.04,1.02-.06,1.48s-.02.92-.03,1.37v2.73c-.14-.02-.29-.03-.44-.03s-.3,0-.41.03c-1.47-1.71-3.01-3.43-4.66-5.16-.01.21-.02.41-.02.62s-.01.42-.01.63v1.24c0,.42,0,.79.01,1.09,0,.3,0,.55.01.76s.01.37.02.51c0,.13.01.24.03.31-.09-.02-.17-.03-.26-.03h-.24c-.16,0-.32,0-.49.03.01-.06.03-.26.06-.61.02-.35.04-.78.07-1.28.03-.51.04-1.05.06-1.64s.03-1.15.03-1.7c0-.49,0-.9-.02-1.24"></path>
  <path d="M75.03,43.34c-.34-.19-.76-.3-1.25-.3-.33,0-.65.07-.97.21-.33.14-.61.35-.87.62-.25.28-.46.63-.62,1.04-.15.42-.24.9-.24,1.47,0,.42.06.82.17,1.18.12.37.29.68.51.94.22.27.49.47.81.62s.69.22,1.1.22c.09,0,.2,0,.31-.02s.23-.02.35-.03c.11-.02.21-.03.3-.06.09-.03.16-.05.21-.08.01-.08.02-.19.02-.32s0-.27,0-.42c0-.58-.01-.99-.03-1.27-.03-.28-.04-.46-.04-.56.07.01.17.03.29.03.12.01.28.02.51.02.26,0,.45,0,.57-.02.12,0,.22-.03.29-.03-.01.06-.03.15-.03.28-.01.13-.02.28-.03.44s-.01.35-.02.53c0,.19,0,.37,0,.54v.35c0,.18,0,.35,0,.5,0,.15.01.26.03.32-.47.13-.94.24-1.42.32s-.96.12-1.42.12c-.61,0-1.17-.08-1.69-.24-.51-.16-.96-.39-1.33-.7-.38-.31-.67-.69-.87-1.12-.21-.44-.31-.93-.31-1.48,0-.67.11-1.27.34-1.78.22-.51.53-.94.93-1.27s.87-.59,1.4-.76,1.12-.26,1.75-.26c.54,0,1.01.06,1.4.17.4.12.79.27,1.17.47-.06.19-.12.37-.17.55-.05.17-.1.35-.13.55h-.15c-.23-.32-.51-.58-.85-.78"></path>
</svg>