<?xml version="1.0" encoding="UTF-8"?>
<svg id="Layer_1" xmlns="http://www.w3.org/2000/svg" version="1.1" viewBox="0 0 34.3 50">
  
  <defs>
    
  </defs>
  <path class="st0" d="M7.78,41.08l.09-.21.14.25c.33,1.17,2.42,1.61,2.97-.14.24.25.34.62.65.85.8.59,2.23.38,2.47-.86l.12.14c.27.35.2.47.52.72,1.54,1.19,2.62-.84,2.64-.86.16.69.69,1.23,1.58,1.19.38-.01.73-.18.96-.37.33-.27.27-.48.59-.81.42,1.68,2.71,1.43,2.96.1l.09-.2.14.25c.5,1.37,2.38,1.35,2.92.03l.08-.25.14.2c.33,1.47,2.49,1.37,3.01-.17.34.55.3.81.92,1.09,1.71.73,2.97-1.24,1.68-2.58l-.22-.25c.39-.18.79-.65.71-1.36-.07-.76-.67-.92-.73-1.17,0-.03-.04-.04-.05-.05,1.03-.97,1.05-1.77-.14-2.62.39-.39.88-.55.82-1.4-.04-.65-.47-1.06-1.01-1.22.13-.13-.03,0,.18-.14.94-.71,1.18-1.79-.03-2.41l-.29-.16s-.05-.03-.07-.05c.63-.18,1.17-.55,1.1-1.36-.05-.64-.59-1.15-1.27-1.15-1.62,0-1.75,2.11-.17,2.53l-.45.24c-.13.07-.24.14-.35.25-.22.21-.39.47-.39.85-.03.93.55,1.03.97,1.4-2.16.73-.31,2.74-.25,2.62,0-.03.04.04.07.07-.92.35-1.4,1.44-.14,2.57-.31.37-.8.5-.81,1.31-.01.68.33,1.11.72,1.3-.21.27-.24.17-.45.47l-.35.56c-.12-.24-.2-.42-.34-.58l-.42-.5c.68-.3.98-1.37.45-2.06-.07-.08-.18-.18-.25-.26l-.27-.26c.41-.31.79-.67.75-1.4-.05-.72-.46-.89-.86-1.22.03-.03.05-.04.07-.05l.52-.51c.2-.27.26-.56.21-.96-.07-.48-.33-.72-.68-.98l-.31-.24c.58-.16,1.02-.59.93-1.39-.1-.98-.86-.84-.99-1.22-.01-.05-.05-.05-.08-.07,1.61-.3,1.23-2.53-.33-2.46-1.37.05-1.83,2.03-.14,2.49l-.22.16c-1.1.68-1.4,2,.08,2.53-.48.41-.98.42-1.03,1.31s.39.89.81,1.4c-.46.31-.85.63-.86,1.31-.03.75.37.98.75,1.31-.34.38-.79.47-.81,1.31-.03.69.33,1.13.72,1.31l-.8,1.07c-.38-.73-.21-.5-.77-1.01.58-.58,1.02-1.31.46-2.17-.09-.16-.42-.3-.47-.46,0-.03-.04-.03-.07-.05.41-.37.8-.64.73-1.4-.05-.59-.47-.98-.88-1.22.33-.34.88-.48.82-1.41-.04-.71-.47-1.05-1.03-1.23.46-.35,1.02-.47.98-1.39-.03-.35-.17-.65-.35-.84-.13-.14-.18-.14-.35-.25l-.43-.26c1.73-.45,1.22-2.57-.25-2.5-1.45.07-1.81,2.11-.16,2.5l-.43.27c-1.07.63-.86,1.95.27,2.42-.46.34-.98.45-1.03,1.28-.05.94.51,1.05.82,1.41-1.15.68-1.14,1.87-.12,2.62-.26.3-.3.12-.55.51-.48.73-.16,1.69.45,2.13-.43.39-.5.45-.73,1.01-.01-.03-.04-.05-.05-.07l-.77-.89c1.36-1.49.59-1.92-.09-2.71,1.01-.8,1.02-1.87-.13-2.62.35-.41.89-.5.82-1.4-.05-.73-.48-1.01-1.03-1.23.45-.37,1.06-.54.97-1.47-.09-.84-.6-.9-1.19-1.24,1.78-.54,1.28-2.47-.08-2.53-.69-.03-1.28.47-1.34,1.13-.08.89.45,1.19,1.09,1.37-.54.42-1.13.45-1.15,1.35-.03.81.46,1.07.98,1.36-.54.2-.98.58-1.03,1.24-.05.79.45,1.03.82,1.41-.42.33-.82.5-.88,1.22-.05.68.37,1.13.75,1.4-.38.38-.8.72-.81,1.32-.03.65.33,1.05.72,1.24-.2.38.03,0-.16.24-.03.03-.09.09-.1.12-.05.05-.12.09-.2.2-.21.26-.18.27-.26.56l-.25-.35c-.07-.12-.07-.14-.14-.26-.2-.27-.25-.21-.45-.46.42-.2.77-.67.71-1.4s-.48-.84-.8-1.22c1.01-.89,1.1-2.06-.14-2.57l.12-.12c.41-.38.75-.69.72-1.34-.04-.68-.5-1.03-1.03-1.22.46-.42,1.06-.58.97-1.51-.08-.8-.68-.89-1.18-1.22,1.74-.51,1.32-2.54-.17-2.53-1.43.01-1.9,2.07-.16,2.51l-.14.09-.07.04-.59.34c-.16.16-.35.52-.37.86-.03.81.51.96.96,1.43-.54.16-.97.56-1.01,1.2-.05.75.42.98.8,1.4-.41.33-.85.51-.86,1.31,0,.71.39.96.75,1.31l-.05.05-.05.05c-.84.8-1.09,1.96.03,2.47l-.27.3c-.25.26-.35.45-.45.8l-.85-1.09c.41-.18.79-.67.72-1.37-.05-.6-.42-.86-.8-1.22.39-.38.81-.6.75-1.41-.07-.76-.45-.89-.86-1.22.1-.1,0,0,.17-.16.63-.56.96-1.34.27-2.08l-.65-.5c1.37-.43,1.23-2.33-.1-2.49h-.56c-.59.1-1.06.56-1.06,1.28,0,.8.56.92.97,1.31-1.06.37-1.28,1.35-.77,2.06.24.33.34.34.58.56-1.17.84-1.23,1.62-.12,2.62-.3.38-.77.56-.8,1.31-.03.77.45,1.05.71,1.41-.55.22-.35.27-.73.81l-.12.14c-.05-.26-.14-.45-.3-.63l-.42-.47c.42-.18.77-.67.72-1.36-.07-.63-.42-.84-.8-1.22.38-.29.8-.71.73-1.4-.07-.71-.43-.89-.85-1.22.31-.31.89-.6.8-1.48-.09-.75-.67-.96-.99-1.26.59-.16,1.06-.72.93-1.48-.14-.81-.58-.8-1.2-1.13.68-.18,1.19-.47,1.17-1.31-.03-.69-.6-1.2-1.26-1.23-1.47-.04-1.92,2.09-.24,2.49-.29.26-.5.24-.77.55-1.13,1.24.51,2.12.6,2.21-.54.14-.98.55-1.02,1.22-.05.8.35,1.01.72,1.31l.1.09c-.45.31-.86.62-.86,1.32,0,.76.37.98.75,1.31-.33.38-.8.48-.81,1.31-.03.88.39,1.02.71,1.4-.56.31-.55.64-.82.96-.16-.51-.29-.54-.51-.8l-.22-.3c.99-.47.92-1.66.16-2.36l-.24-.21c.41-.33.8-.67.73-1.4-.05-.71-.46-.89-.88-1.22.37-.39.88-.51.82-1.41-.04-.72-.5-.99-1.03-1.24.51-.34,1.07-.52.97-1.47-.08-.84-.63-.9-1.22-1.23,1.86-.5,1.26-2.5-.08-2.54-.72-.01-1.27.54-1.32,1.14-.07.81.45,1.22,1.07,1.36l-.79.52c-.55.62-.56,1.69.62,2.16-.46.37-.97.39-1.02,1.28-.05.93.52,1.05.82,1.4-1.2.77-1.14,1.86-.14,2.62-.21.22-.34.21-.54.51-.48.75-.29,1.58.46,2.12-.27.26-.54.47-.67.89l-.08.25-.16-.22c-.09-.42-.41-.65-.67-.92.42-.22.77-.76.71-1.43-.08-.77-.5-.86-.8-1.22,1.06-.84,1.05-1.82-.13-2.62.3-.34.88-.5.82-1.4-.04-.68-.51-1.07-1.05-1.23.46-.35,1.02-.5.98-1.4-.04-.93-.86-1.13-1.13-1.36,1.71-.51,1.22-2.51-.25-2.5-1.37.01-1.9,2.08-.16,2.5-.13.1,0,0-.22.14-.13.08-.07.04-.21.12-.39.21-.71.5-.72,1.09-.01.8.37,1.1.98,1.34-.5.31-.98.55-1.03,1.28-.07.92.46,1.01.82,1.41-1.1.82-1.28,1.68-.13,2.62l-.18.16c-1.01.92-.73,2.03.09,2.41-.17.34-.22.25-.46.55-.18.22-.18.3-.27.54-.03-.03-.04-.05-.05-.07-.59-.9-.26-.35-.77-.97.41-.22.77-.67.71-1.4-.07-.71-.5-.86-.8-1.22,1.05-.89,1.09-1.82-.12-2.62.33-.39.86-.56.81-1.4-.04-.68-.47-1.05-1.02-1.22.45-.42,1.06-.56.97-1.51-.07-.58-.45-.85-.81-1.03l-.37-.18c1.79-.47,1.28-2.54-.17-2.53-1.36.03-1.94,2-.16,2.51l-.45.24c-1.06.56-.96,2.03.24,2.41-.2.17-.48.29-.71.55-.94,1.13.39,2.03.52,2.17-.46.33-.81.51-.89,1.22-.08.82.35,1.01.75,1.4l-.56.56c-.42.6-.27,1.64.47,2.03-.12.18-.03.05-.16.18-.03.03-.09.09-.1.1-.81.82-.59,1.89.12,2.38.6.45,1.66.42,2.2-.27l.35-.56c.26.45.16.46.55.77.94.75,2.26.25,2.45-.71"></path>
  <path class="st0" d="M15.38,28.56h.77c.56-.27.98-.62.88-1.41-.08-.6-.59-1.05-1.27-1.06-1.41-.03-1.86,1.9-.38,2.47"></path>
  <path class="st0" d="M29.5,25.1c.6-1.51-1.75-2.29-2.3-.86-.59,1.52,1.7,2.41,2.3.86"></path>
  <path class="st0" d="M26.35,25.1c.54-1.64-1.85-2.17-2.32-.89-.62,1.69,1.85,2.32,2.32.89"></path>
  <path class="st0" d="M13.79,25.1c.59-1.51-1.75-2.29-2.3-.86-.58,1.52,1.7,2.4,2.3.86"></path>
  <path class="st0" d="M32.6,25.19c.68-1.48-1.54-2.46-2.24-1.02-.71,1.45,1.57,2.47,2.24,1.02"></path>
  <path class="st0" d="M1.96,24.89c.21,1.49,2.68,1.23,2.44-.39-.24-1.49-2.67-1.31-2.44.39"></path>
  <path class="st0" d="M16.93,25.1c.64-1.57-1.85-2.17-2.32-.85-.56,1.57,1.73,2.32,2.32.85"></path>
  <path class="st0" d="M20.83,24.89c.2,1.41,2.67,1.27,2.44-.39-.21-1.49-2.67-1.28-2.44.39"></path>
  <path class="st0" d="M8.26,24.89c.18,1.43,2.64,1.26,2.42-.38-.2-1.53-2.63-1.32-2.42.38"></path>
  <path class="st0" d="M5.11,24.89c.2,1.43,2.67,1.27,2.44-.39-.21-1.47-2.66-1.31-2.44.39"></path>
  <path class="st0" d="M17.71,25c.33,1.39,2.76,1.03,2.4-.59-.33-1.4-2.79-1.1-2.4.59"></path>
  <path class="st0" d="M30.33,22.27c.26,1.41,2.62,1.14,2.29-.5-.26-1.37-2.59-1.11-2.29.5"></path>
  <path class="st0" d="M4.27,22.47c.64-1.39-1.57-2.26-2.15-.94-.69,1.56,1.54,2.25,2.15.94"></path>
  <path class="st0" d="M20,22.47c.62-1.45-1.58-2.2-2.16-.94-.72,1.6,1.61,2.21,2.16.94"></path>
  <path class="st0" d="M14.61,22.27c.1.56.71,1.03,1.43.88.56-.12.99-.63.88-1.34-.24-1.4-2.59-1.19-2.32.46"></path>
  <path class="st0" d="M20.92,22.38c.39,1.4,2.67.85,2.26-.65-.14-.55-.77-.96-1.43-.8-.56.12-1.05.75-.84,1.47"></path>
  <path class="st0" d="M24.06,22.38c.37,1.37,2.71.86,2.25-.67-.42-1.39-2.67-.92-2.25.67"></path>
  <path class="st0" d="M27.2,22.38c.39,1.37,2.7.88,2.25-.68-.38-1.34-2.71-.92-2.25.68"></path>
  <path class="st0" d="M11.47,22.27c.24,1.36,2.62,1.13,2.3-.5-.27-1.36-2.59-1.13-2.3.5"></path>
  <path class="st0" d="M8.35,22.38c.41,1.4,2.67.88,2.25-.68-.34-1.3-2.72-.92-2.25.68"></path>
  <path class="st0" d="M5.17,22.27c.24,1.34,2.59,1.11,2.32-.48-.1-.59-.72-1.01-1.36-.9-.58.09-1.07.68-.96,1.37"></path>
  <path class="st0" d="M29.4,19.76c.55-1.34-1.57-2.07-2.08-.85-.6,1.41,1.51,2.25,2.08.85"></path>
  <path class="st0" d="M24.18,19.85c.6,1.24,2.62.46,2.03-.96-.51-1.24-2.72-.45-2.03.96"></path>
  <path class="st0" d="M10.54,19.76c.51-1.45-1.61-1.98-2.08-.85-.63,1.49,1.61,2.2,2.08.85"></path>
  <path class="st0" d="M13.67,19.76c.56-1.32-1.64-2.12-2.11-.77-.47,1.37,1.53,2.13,2.11.77"></path>
  <path class="st0" d="M32.53,19.76c.54-1.31-1.52-2.08-2.08-.82-.62,1.4,1.51,2.21,2.08.82"></path>
  <path class="st0" d="M20.96,19.65c.33,1.36,2.55.92,2.17-.59-.13-.51-.68-.9-1.36-.75-.52.12-.98.67-.81,1.34"></path>
  <path class="st0" d="M14.68,19.65c.31,1.35,2.54.96,2.17-.56-.3-1.22-2.53-.97-2.17.56"></path>
  <path class="st0" d="M2.07,19.55c.16,1.35,2.49,1.19,2.21-.39-.22-1.27-2.38-1.09-2.21.39"></path>
  <path class="st0" d="M5.25,19.65c.26,1.2,2.45,1.01,2.19-.5-.24-1.34-2.53-1.07-2.19.5"></path>
  <path class="st0" d="M16.78,17.04c.41-1.4-1.7-1.9-2.04-.62-.39,1.47,1.69,1.85,2.04.62"></path>
  <path class="st0" d="M4.16,17.14c.54-1.36-1.49-2.03-1.96-.85-.56,1.41,1.48,2.06,1.96.85"></path>
  <path class="st0" d="M10.46,17.14c.59-1.31-1.49-2.02-1.96-.84-.54,1.34,1.41,2.07,1.96.84"></path>
  <path class="st0" d="M27.28,16.93c.2,1.24,2.34,1.05,2.09-.39-.24-1.34-2.32-1.05-2.09.39"></path>
  <path class="st0" d="M30.45,17.04c.31,1.15,2.41.9,2.06-.59-.3-1.23-2.46-.89-2.06.59"></path>
  <path class="st0" d="M7.31,17.14c.59-1.37-1.51-1.94-1.96-.84-.56,1.35,1.45,2.03,1.96.84"></path>
  <path class="st0" d="M24.17,17.04c.3,1.19,2.41.85,2.04-.56-.3-1.22-2.42-.9-2.04.56"></path>
  <path class="st0" d="M11.57,16.93c.21,1.27,2.29.98,2.09-.39-.17-1.26-2.34-1.06-2.09.39"></path>
  <path class="st0" d="M10.42,14.4c.48-1.3-1.47-1.85-1.89-.76-.52,1.41,1.45,1.9,1.89.76"></path>
  <path class="st0" d="M29.27,14.55c.58-1.22-1.28-2.07-1.83-.96-.27.56-.01,1.19.48,1.39.71.27,1.27-.26,1.36-.43"></path>
  <path class="st0" d="M14.78,14.31c.26,1.23,2.26.86,1.96-.47-.26-1.18-2.26-.9-1.96.47"></path>
  <path class="st0" d="M11.66,14.4c.35,1.14,2.34.65,1.9-.68-.38-1.13-2.33-.68-1.9.68"></path>
  <path class="st0" d="M2.2,14.31c.24,1.1,2.28.94,1.96-.47-.29-1.28-2.24-.81-1.96.47"></path>
  <path class="st0" d="M30.49,14.31c.24,1.17,2.26.89,1.98-.47-.26-1.18-2.25-.89-1.98.47"></path>
  <path class="st0" d="M26.14,14.4c.47-1.32-1.51-1.79-1.89-.76-.51,1.39,1.48,1.87,1.89.76"></path>
  <path class="st0" d="M5.34,14.31c.21,1.1,2.25.92,1.96-.48-.24-1.11-2.24-.9-1.96.48"></path>
  <path class="st0" d="M2.3,11.79c.46,1.07,2.3.47,1.75-.77-.45-1.02-2.29-.46-1.75.77"></path>
  <path class="st0" d="M7.21,11.79c.5-1.15-1.24-1.82-1.74-.81-.58,1.17,1.24,1.99,1.74.81"></path>
  <path class="st0" d="M11.68,11.59c.18,1.19,2.12.92,1.87-.38-.21-1.1-2.07-.92-1.87.38"></path>
  <path class="st0" d="M24.26,11.59c.16,1.17,2.12.96,1.87-.38-.21-1.1-2.06-.93-1.87.38"></path>
  <path class="st0" d="M14.89,11.79c.45,1.1,2.24.46,1.75-.76-.41-1.03-2.25-.47-1.75.76"></path>
  <path class="st0" d="M30.54,11.59c.18,1.11,2.11.94,1.87-.38-.22-1.17-2.07-.85-1.87.38"></path>
  <path class="st0" d="M27.4,11.59c.16,1.1,2.12.94,1.86-.38-.22-1.15-2.06-.89-1.86.38"></path>
  <path class="st0" d="M28.07,7.92c-1.15.35-.63,2.04.58,1.66.43-.14.73-.65.51-1.19-.16-.41-.64-.6-1.09-.47"></path>
  <path class="st0" d="M6.09,7.91c-1.14.33-.67,2.02.54,1.68,1.06-.3.65-2.02-.54-1.68"></path>
  <path class="st0" d="M2.91,7.95c-1.22.48-.5,2.03.63,1.62.97-.34.51-2.08-.63-1.62"></path>
  <path class="st0" d="M12.31,7.99c-.26.1-.39.01-.54.42-.31.9.58,1.45,1.24,1.14.98-.47.39-2.03-.71-1.56"></path>
  <path class="st0" d="M31.21,7.94c-1.22.42-.51,2.04.59,1.64s.48-2.02-.59-1.64"></path>
  <path class="st0" d="M15.49,7.94c-1.23.42-.5,2.03.59,1.65.98-.34.55-2.04-.59-1.65"></path>
  <path class="st0" d="M28.17,5.31c-1.14.24-.75,1.91.45,1.6.93-.24.67-1.82-.45-1.6"></path>
  <path class="st0" d="M12.38,5.33c-1.11.37-.58,1.86.5,1.56.98-.27.63-1.92-.5-1.56"></path>
  <path class="st0" d="M6.13,5.32c-1.19.35-.59,1.91.5,1.56.9-.27.56-1.89-.5-1.56"></path>
  <path class="st0" d="M15.51,5.34c-1.24.45-.41,1.92.56,1.53.92-.38.46-1.9-.56-1.53"></path>
  <path class="st0" d="M31.25,5.34c-1.22.42-.46,1.92.56,1.52.92-.35.43-1.85-.56-1.52"></path>
  <path class="st0" d="M5.96,2.77c-.88.5-.26,1.85.75,1.36.86-.42.21-1.9-.75-1.36"></path>
  <path class="st0" d="M27.95,2.79c-.82.54-.22,1.74.75,1.37.94-.37.18-1.99-.75-1.37"></path>
  <path class="st0" d="M31.09,2.8c-.93.5-.16,1.79.8,1.32.84-.42.22-1.86-.8-1.32"></path>
  <path class="st0" d="M6.15.04c-.98.3-.59,1.69.41,1.44.94-.24.59-1.75-.41-1.44"></path>
  <path class="st0" d="M15.47,28.74h.56l.12-.18h-.77l.09.18"></path>
  <path class="st0" d="M8.01,40.12l-.24.03.16.22.08-.25Z"></path>
  <path class="st0" d="M26.65,41.15l.22-.05-.14-.2s-.08.25-.08.25Z"></path>
  <path class="st0" d="M7.78,41.08l.24.04-.14-.25-.09.21Z"></path>
  <path class="st0" d="M23.5,41.07l.24.05-.14-.25s-.09.2-.09.2Z"></path>
  <path class="st1" d="M4.23,46.2c-.12-.41-.35-.72-.69-.98-.35-.25-.75-.38-1.18-.38-.3,0-.55.08-.72.22-.18.16-.27.35-.27.6,0,.18.1.37.3.54s.52.34.97.54c.77.33,1.31.62,1.61.88.3.26.45.56.45.9,0,.46-.21.81-.63,1.09s-.98.39-1.7.39c-.39,0-.77-.07-1.14-.22-.16-.07-.27-.08-.39-.07-.1.03-.18.08-.24.18l-.04.07h-.26l-.29-1.71h.26c.16.41.43.75.82,1.01s.81.39,1.26.39c.39,0,.71-.09.94-.26.24-.17.35-.41.35-.71,0-.18-.12-.38-.38-.56-.25-.18-.65-.39-1.2-.63-.6-.25-1.05-.51-1.34-.76s-.43-.51-.43-.79c0-.42.18-.77.54-1.03.35-.27.81-.41,1.37-.41.41,0,.8.08,1.19.21.12.05.22.05.34.03s.2-.07.25-.14l.07-.1h.26l.21,1.69h-.26l-.03.03ZM8.92,50c-.99,0-1.82-.26-2.45-.77-.64-.51-.96-1.17-.96-1.98s.31-1.47.96-1.98c.63-.51,1.45-.77,2.45-.77s1.82.26,2.46.77c.63.51.96,1.17.96,1.98s-.31,1.47-.96,1.98-1.45.77-2.46.77ZM8.92,49.66c.67,0,1.19-.21,1.58-.64s.59-1.02.59-1.75-.2-1.34-.59-1.75c-.39-.43-.92-.65-1.58-.65s-1.19.21-1.58.65c-.39.43-.59,1.02-.59,1.75s.2,1.32.59,1.75c.39.43.92.64,1.58.64ZM13.82,48.72v-2.92c0-.41-.05-.67-.16-.79-.1-.12-.37-.18-.77-.21v-.18h2.76c.93,0,1.62.12,2.11.35s.72.59.72,1.05c0,.43-.26.77-.77,1.02-.09.05-.21.09-.33.14.21.05.41.13.59.21.58.27.86.63.86,1.05,0,.52-.25.89-.73,1.11-.5.22-1.31.33-2.46.33h-2.76v-.18c.41-.03.67-.09.77-.21s.16-.38.16-.77h.01ZM14.94,45.4v1.62h.81c.51,0,.93-.09,1.23-.27s.45-.45.45-.76-.14-.58-.45-.76-.71-.27-1.23-.27h-.2c-.26,0-.42.03-.5.09-.08.05-.12.17-.12.37h0ZM14.94,47.39v1.71c0,.2.04.31.1.37.07.05.24.08.5.08h.12c.65,0,1.15-.09,1.47-.26.31-.18.47-.45.47-.81s-.16-.63-.47-.81-.77-.27-1.39-.27c0,0-.8,0-.8,0ZM20.45,48.72v-2.92c0-.42-.05-.68-.16-.79-.12-.12-.37-.18-.77-.2v-.18h2.97v.18c-.41.03-.65.07-.77.16-.1.08-.16.26-.16.55v1.57h3.06v-1.57c0-.29-.05-.47-.16-.55-.12-.08-.37-.13-.77-.16v-.18h2.97v.18c-.41.01-.65.08-.77.2-.1.12-.16.38-.16.79v2.92c0,.41.05.67.16.79.12.12.37.18.77.2v.18h-2.97v-.18c.41-.03.65-.07.77-.16.1-.08.16-.26.16-.55v-1.57h-3.06v1.57c0,.27.05.47.16.55.12.08.37.13.77.16v.18h-2.97v-.18c.41-.01.65-.08.77-.2.1-.12.16-.38.16-.79ZM28.09,49.01l2.5-4.5h.24l2.58,4.65c.13.24.25.38.35.45s.27.1.54.12v.18h-2.62v-.18c.3,0,.5-.04.59-.13s.07-.24-.05-.43l-.56-1.02h-2.57l-.45.81c-.14.26-.17.46-.08.58s.31.18.68.2v.18h-2.12v-.18c.26-.03.43-.08.55-.17.12-.08.25-.26.41-.54h.01ZM30.4,45.78l-1.1,1.99h2.2l-1.1-1.99"></path>
</svg>