<?xml version="1.0" encoding="UTF-8"?>
<svg id="layer" xmlns="http://www.w3.org/2000/svg" version="1.1" viewBox="0 0 147.44 50">
  
  <path d="M139.46,41.56c-.75,3.22-2.31,5.94-4.55,8.18h12.15c2.31-12.64-6.04-26.1-19.58-29,2.73.73,14.71,6.36,11.98,20.82"></path>
  <path d="M97.31,0v49.75h5.28c3.22,0,3.97.08,5.7-.24,7.6-1.07,14.54-7.28,15.29-12.73,1.17-6.45-2.39-12.15-9.18-13.56-.08,0-.24-.08-.41-.08-.24,0-3.55,0-6.04-.66,0,0-1.49,1.17-.9,3.31,0,0-3.39-3.55-1.24-8.26,0,0,1.07-2.24,4.55-4.55l.08-.08c.9-1.17,3.22-3.14,6.53-4.63,1.66-.75,4.55-1.82,7.77-2.14,14.71-1.41,22.64,9.91,22.64,9.91V.02h-50.07v-.02Z"></path>
  <path d="M133.59,12.06c-7.02-.9-12.98.9-17.68,4.14,0,0,1.41-.83,3.48-1.56.34,1.32,1.49,2.48,2.97,2.8,2.07.41,4.04-.75,4.46-2.73.08-.49.08-1.07-.08-1.56,13.47-.41,20.65,9.91,20.65,9.91v-4.46c-1.99-1.99-7.52-5.87-13.8-6.55"></path>
  <path d="M6.8,31.5h3.58l6.76,17.98h-4.06l-1.5-4.2h-6.28l-1.5,4.2H.04l6.76-17.98ZM10.68,42.28l-2.25-6.45-2.12,6.45h4.37Z"></path>
  <path d="M19.39,31.5c7.18-.15,15.6-.93,15.46,8.84.15,9.52-8.29,9.45-15.46,9.14,0,0,0-17.98,0-17.98ZM25.53,46.34c5.35.52,6.77-6.54,4.2-10.03-1.43-2.01-4.55-1.63-6.76-1.64v11.53h2.56v.14Z"></path>
  <polygon points="37.81 31.5 41.12 31.5 48.45 43.34 48.45 31.5 52.21 31.5 52.21 49.48 48.76 49.48 41.43 37.78 41.43 49.48 37.81 49.48 37.81 31.5"></polygon>
  <path d="M63.91,49.92c-11.39.76-11.35-19.59,0-18.9,11.39-.77,11.35,19.6,0,18.9M63.91,46.78c6.47.32,6.53-12.83,0-12.42-6.4-.3-6.65,12.77,0,12.42"></path>
  <path d="M90.73,43.34c-.04,5.59-6.48,8.06-11.09,5.87-3.53-1.45-4.51-5.2-4.67-8.84-.75-10.25,13.7-13.64,15.49-3.31l-3.75.44c-.39-2.24-1.19-3.17-3.62-3.17-3.5.17-4.35,2.77-4.37,6.28-.61,6.22,6.78,9.19,7.95,2.83h4.06v-.1Z"></path>
  <path d="M19.39,20.1V4.07h3.75v19.17c-3.91-.48-18.43,1.34-21.29-1.64-3.85-3.65-1.39-11.51,4.64-11.09l.44,3.14c-3.39-.13-4.2,3.64-2.42,5.7,1.44,1.46,12.94.48,14.88.75ZM15.77,11.84v1.19h-4.81v-1.19h.61c0-.76-.09-1.83.61-2.25,1.24-.91,3.49-.51,3.62,1.36l-1.19.14c0-.31-.14-.44-.14-.61-1.12-.51-1.67.25-1.5,1.36h2.8Z"></path>
  <path d="M58.79,9.9v10.03h-20.54c-.05-2.49.44-6.97-1.5-8.53-1.93-2.09-7.12-1.95-9.01.14-4.2,5.37-.29,12.41,6.93,11.7.04,1.31-.08,2.78-.61,3.14l1.81,2.83c1.97-1.01,2.32-3.44,2.39-6h24.29v-13.34h-3.75v.03ZM34.67,20.1h-1.19c-3.42.34-4.71-3.9-3.14-6.14.64-.99,2.47-.86,3.45-.44,1.56,1.22.9,4.66,1.06,6.58h-.17Z"></path>
  <rect x="58.79" y="4.51" width="3.58" height="3.58"></rect>
  <path d="M79.64,20.1c.41-4.95-1.14-7.99-6.41-6.28l-.89-3.14c10.68-2.79,11.38,4.1,10.95,12.73h-17.98v-3.31h14.33Z"></path>
  <path d="M90.73,3.14v1.19h-4.81v-1.19h.61c-.65-2.97,3.7-4.2,4.23-1.06l-1.19.14c0-.31-.14-.44-.14-.61-1.24-.55-1.65.37-1.5,1.5h2.8v.03Z"></path>
  <rect x="86.39" y="5.84" width="3.58" height="17.4"></rect>
</svg>