<?xml version="1.0" encoding="UTF-8"?>
<svg id="dm-logo" xmlns="http://www.w3.org/2000/svg" version="1.1" viewBox="0 0 157.32 50">
  
  <defs>
    
  </defs>
  <path id="Path_22007" d="M7.77,36.29c0-.64-.53-1.16-1.17-1.16s-1.16.53-1.16,1.17c0,.64.53,1.16,1.17,1.16.31,0,.6-.12.82-.34.22-.22.35-.52.34-.83Z"></path>
  <path id="Path_22008" d="M4.81,37.12c.47-.46.47-1.21.01-1.68s-1.21-.47-1.68-.01c-.47.46-.47,1.21-.01,1.68.22.23.53.35.84.35.31.01.62-.11.83-.34Z"></path>
  <path id="Path_22009" d="M19.91,31.12c1.75,0,3.17-1.41,3.18-3.16v-4.99c-.53-.01-1.05.2-1.41.6-.38.38-.59.89-.58,1.43v2.97c0,.64-.51,1.17-1.16,1.17h-7.35c-.64,0-1.17-.51-1.17-1.16v-5.01h-1.09c-1.63-.03-3.22.55-4.46,1.62-.95.86-1.49,2.09-1.49,3.37,0,.75.26,1.48.75,2.05.49.57,1.16.96,1.9,1.09.06,0,.13,0,.19.02h.3c.09,0,.17.07.21.15.04.09.02.2-.06.26-.7.69-1.67,1.04-2.65.96-.8-.07-1.54-.43-2.09-1-.55-.57-.89-1.32-.96-2.11-.04-.64.1-1.28.41-1.84.39-.7.33-1.56-.15-2.2l-.28-.36C.65,26.06-.07,27.7,0,29.4c.16,2.75,2.39,4.94,5.14,5.05,1.5.07,2.95-.5,4.01-1.56.44-.42.68-1,.66-1.6-.02-.57-.25-1.12-.64-1.54-.41-.44-1-.68-1.6-.66h-.15s-.06-.02-.11-.02-.06-.02-.08-.02c-.23-.09-.44-.24-.6-.43-.15-.19-.24-.44-.23-.68,0-.59.22-1.15.6-1.6.44-.55,1.04-.94,1.73-1.11.24-.07.48-.11.73-.13h.04v2.84c-.01,1.73,1.37,3.14,3.1,3.16h7.32v.02Z"></path>
  <path id="Path_22010" d="M19.29,32.75c-.47.46-.47,1.21-.01,1.68s1.21.47,1.68.01c.47-.46.47-1.21.01-1.68-.22-.23-.53-.35-.84-.35-.31,0-.61.13-.83.34Z"></path>
  <path id="Path_22011" d="M33.5,27.05c.01-1.05-.4-2.06-1.13-2.82-.74-.77-1.75-1.22-2.82-1.26h-.13c-.12,0-.24,0-.36.02-1.16.09-2.26.57-3.11,1.37l.28.32c.53.58,1.35.78,2.09.51.29-.11.59-.17.9-.19h.3c.53,0,1.04.23,1.41.62.37.38.58.88.6,1.41,0,.55-.21,1.08-.6,1.47-.38.4-.9.63-1.45.64h-2.54c-.53-.01-1.04.2-1.41.58-.38.37-.6.88-.6,1.41h4.65c1.07-.03,2.08-.48,2.82-1.26.73-.76,1.13-1.77,1.11-2.82Z"></path>
  <path id="Path_22012" d="M40.48,21.16c.64,0,1.16-.53,1.16-1.17s-.53-1.16-1.17-1.16-1.16.53-1.16,1.17c0,.31.12.6.34.82.22.22.52.35.83.34Z"></path>
  <path id="Path_22013" d="M43.1,21.16c.64,0,1.16-.53,1.16-1.17s-.53-1.16-1.17-1.16-1.16.53-1.16,1.17c0,.31.12.6.34.82.22.22.52.35.83.34Z"></path>
  <path id="Path_22014" d="M56.35,32.75c-.47.46-.47,1.21-.01,1.68s1.21.47,1.68.01c.47-.46.47-1.21.01-1.68-.22-.23-.53-.35-.84-.35-.31,0-.61.13-.83.34Z"></path>
  <path id="Path_22015" d="M55.73,33.58c0-.64-.53-1.16-1.17-1.16s-1.16.53-1.16,1.17c0,.64.53,1.16,1.17,1.16.31,0,.6-.12.82-.34.22-.22.35-.52.34-.83Z"></path>
  <path id="Path_22016" d="M54.47,31.12h2.13c1.75,0,3.17-1.41,3.18-3.16v-4.99c-.53-.01-1.05.2-1.41.6-.38.38-.59.89-.58,1.43v2.97c0,.64-.51,1.17-1.16,1.17h-10.55c-.64,0-1.17-.51-1.17-1.16v-5.76c-1.32-.04-2.62.22-3.82.77-.94.44-1.74,1.13-2.3,2.01-.5.8-.77,1.72-.77,2.67,0,.91.35,1.79,1,2.43.63.66,1.52,1.03,2.43,1.02h2.01c0-1.11-.89-2-2-2.01h0c-.8,0-1.45-.65-1.45-1.45,0-1.58.96-2.65,2.88-3.2v3.48c0,1.75,1.43,3.16,3.18,3.16h8.41v.02Z"></path>
  <path id="Path_22017" d="M76.13,31.12c.8.02,1.58-.29,2.15-.85.57.56,1.34.87,2.13.85h9.62c1.75,0,3.17-1.41,3.18-3.16v-4.99c-.53-.01-1.05.2-1.41.6-.38.38-.59.89-.58,1.43v2.97c0,.64-.51,1.17-1.16,1.17h-9.64c-.64,0-1.17-.51-1.17-1.16v-10.34c-1.1,0-2,.88-2.01,1.98v8.32c0,.64-.51,1.17-1.16,1.17h-5.29c-.64,0-1.17-.51-1.17-1.16v-.96c.01-1.04-.39-2.04-1.13-2.77-.74-.77-1.75-1.22-2.82-1.26h-.13c-.12,0-.24,0-.36.02-1.16.09-2.26.57-3.11,1.37l.28.32c.53.58,1.35.78,2.09.51.29-.11.59-.17.9-.19h.3c.53,0,1.04.23,1.41.62.37.38.58.88.6,1.41,0,.55-.21,1.08-.6,1.47-.38.4-.9.63-1.45.64h-2.54c-.53-.01-1.04.2-1.41.58-.38.37-.6.88-.6,1.41h4.65c.98-.03,1.91-.41,2.62-1.09l.19.19c.56.57,1.33.89,2.13.87h5.46v.02Z"></path>
  <path id="Path_22018" d="M89.4,32.75c-.47.46-.47,1.21-.01,1.68.46.47,1.21.47,1.68.01.47-.46.47-1.21.01-1.68-.22-.23-.53-.35-.84-.35-.31,0-.61.13-.83.34Z"></path>
  <path id="Path_22019" d="M2.29,43.54H.18v6.29h2.05c1.84,0,3.5-.96,3.5-3.16,0-2.43-1.43-3.14-3.43-3.14ZM1.99,48.66h-.43v-3.93h.73c1.26,0,1.94.49,1.94,1.96,0,1.6-.74,1.96-2.24,1.96Z"></path>
  <path id="Path_22020" d="M10.84,47.21c0,.83-.28,1.62-1.39,1.62s-1.43-.73-1.43-1.73v-3.56h-1.39v3.73c-.14,1.36.85,2.57,2.2,2.71.18.02.35.02.53,0,1.6,0,2.86-.75,2.86-2.73v-3.71h-1.38v3.67Z"></path>
  <path id="Path_22021" d="M17.12,46.53c.58-.18.97-.72.98-1.32,0-1-.79-1.66-2.33-1.66h-2.3v6.29h2.47c1.54,0,2.41-.66,2.41-1.86-.01-.72-.53-1.32-1.24-1.45ZM14.86,44.63h.9c.62,0,.94.26.94.7,0,.58-.45.77-1.07.77h-.77v-1.47ZM15.83,48.73h-.98v-1.6h1c.75,0,1.07.34,1.07.79s-.25.81-1.09.81h0Z"></path>
  <path id="Path_22022" d="M20.96,43.54l-2.26,6.23v.08h1.45l.49-1.51h2.33l.51,1.51h1.47v-.08l-2.26-6.23h-1.73ZM21,47.23l.79-2.41.81,2.41h-1.6Z"></path>
  <rect id="Rectangle_954" x="25.76" y="43.54" width="1.39" height="6.29"></rect>
  <path id="Path_22023" d="M34.65,46.29c-.21.43-.43.9-.55,1.24-.14-.43-.33-.84-.55-1.24l-1.43-2.75h-1.43v6.29h1.34v-3.93c.12.32.27.63.43.94l1.11,2.2h1.07l1.09-2.2c.16-.3.3-.62.43-.94v3.93h1.37v-6.29h-1.43l-1.43,2.75Z"></path>
  <path id="Path_22024" d="M42.97,47.21c0,.83-.28,1.62-1.39,1.62s-1.43-.73-1.43-1.73v-3.56h-1.39v3.73c-.14,1.36.85,2.57,2.2,2.71.18.02.35.02.53,0,1.6,0,2.86-.75,2.86-2.73v-3.71h-1.39v3.67Z"></path>
  <path id="Path_22025" d="M49.84,47.79c-.18-.36-.38-.7-.62-1.02l-2.15-3.22h-1.49v6.29h1.34v-4.27c.22.46.47.91.77,1.32l1.98,2.94h1.49v-6.29h-1.34v4.25h.02Z"></path>
  <rect id="Rectangle_955" x="52.57" y="43.54" width="1.39" height="6.29"></rect>
  <path id="Path_22026" d="M58.21,48.79c-1.11,0-1.75-.73-1.75-2.13,0-1.32.49-2.11,1.64-2.11.53,0,1.05.15,1.49.45l.51-1.02c-.63-.39-1.35-.59-2.09-.58-1.58,0-3.01.81-3.01,3.33,0,1.84.83,3.24,3.05,3.24.74,0,1.47-.23,2.09-.64l-.53-.98c-.41.3-.9.45-1.41.44Z"></path>
  <rect id="Rectangle_956" x="60.96" y="43.54" width="1.39" height="6.29"></rect>
  <path id="Path_22027" d="M65.93,43.54h-2.2v6.29h1.39v-2.11h.79c1.69,0,2.52-.92,2.52-2.18,0-1.13-.77-2.01-2.49-2.01ZM65.78,46.61h-.67v-1.98h.81c.66,0,1.09.3,1.09.96,0,.79-.51,1.02-1.24,1.02h0Z"></path>
  <path id="Path_22028" d="M70.39,43.54l-2.26,6.23v.08h1.45l.49-1.51h2.33l.51,1.51h1.47v-.08l-2.26-6.23h-1.73ZM70.43,47.23l.79-2.41.81,2.41h-1.6Z"></path>
  <path id="Path_22029" d="M76.57,43.54h-1.39v6.29h4.25v-1.17h-2.86v-5.12h0Z"></path>
  <rect id="Rectangle_957" x="80.27" y="43.54" width="1.39" height="6.29"></rect>
  <path id="Path_22030" d="M82.46,44.71h2.01v5.12h1.39v-5.12h1.96v-1.17h-5.35v1.17Z"></path>
  <path id="Path_22031" d="M92.51,43.54l-1.47,2.43-1.41-2.43h-1.56v.06l2.26,3.65v2.58h1.39v-2.63l2.3-3.61v-.06h-1.51Z"></path>
  <path id="Path_22032" d="M138.4,23.55"></path>
  <path id="Path_22033" class="st0" d="M128.03,13.4l7.83-9.32s-3.67-3.71-3.78-3.82c-.18-.18-.43-.28-.68-.26h-15.51c-.3,0-.54.25-.54.55,0,.14.06.27.15.37,3.14,3.16,12.52,12.48,12.52,12.48Z"></path>
  <path id="Path_22034" d="M157.16,25.34c-3.33-3.39-17.11-17.43-20.67-21.06l-.02-.02h0c-.21-.21-.55-.21-.77,0,0,0,0,0,0,0-1.92,2.3-37.08,44.18-37.4,44.57-.32.41-.21.92.55.92h34.18c.39.03.78-.12,1.05-.41.19-.19,21.31-21.44,23.11-23.23.2-.22.19-.56-.02-.77Z"></path>
  <path id="Path_22035" d="M138.4,23.53"></path>
</svg>