<?xml version="1.0" encoding="UTF-8"?>
<svg id="Layer_1" xmlns="http://www.w3.org/2000/svg" version="1.1" viewBox="0 0 50.01 50">
  
  <path d="M10.68,0h.72l12.21,26.64c.12-.23.06-.5.08-.75.02-.18.02-.34.03-.52l.02-.43.03-.57.03-.66.03-.68.03-.66.03-.68.03-.66.03-.66.03-.68.03-.66.03-.68.03-.66.03-.68.03-.66.03-.68.03-.66.03-.68.03-.66.03-.68.03-.66.03-.68.03-.66.03-.66.03-.68.03-.66.03-.68.03-.66.03-.68.03-.66.03-.68.03-.66.03-.68.03-.66.03-.66.03-.68.03-.66.03-.65.03-.61.02-.26h.62l.02.49.03.65.03.75.03.7.03.78.03.7.03.75.03.7.03.72.03.75.03.73.03.75.03.7.03.75.03.7.03.75.03.73.03.75.03.7.03.75.03.7.03.75.03.73.03.75.03.7.03.75.03.7.03.75.03.73.03.75.03.7.03.75.03.7.03.75.03.75.03.64.02.4c0,.13-.02.27.07.37L39.07,0h.39l-9.69,27.89c.05,0,.14-.03.18-.07l.64-.62.56-.52.59-.56.59-.56.62-.59.56-.53.62-.59.62-.59.59-.56.59-.56.59-.56.62-.59.62-.59.56-.53.62-.59.62-.59.56-.53.62-.59.62-.59.56-.53.62-.59.62-.59.56-.53.62-.59.59-.56.62-.59.62-.59.56-.53.62-.59.59-.56.59-.56.59-.56.57-.54c.08-.08.17-.15.25-.21v.99c-.16.14-.31.29-.46.47l-17.23,19.59c2.31-.66,4.51-1.31,6.78-1.85,3.61-.89,7.24-1.54,10.91-1.98v1.68c-.8.14-1.59.3-2.41.49-2.06.49-4.09,1.05-6.13,1.66-4.12,1.23-8.16,2.57-12.25,4.04l2.92,1.59c1.16.63,2.26,1.32,3.34,2.09-.02.07-.07.16-.12.19-.07.04-.16.04-.25,0-9.93-3.8-21.46-6.37-32.02-7.19l-.46-.04-.39-.03-.46-.03-.46-.03c-.11,0-.22-.02-.33-.04H.07v19.48s49.94,0,49.94,0v.07H0S0,0,0,0h.03v9.12l.49.48.49.46.52.49.53.49.49.46.53.49.49.46.53.49.53.49.49.46.53.49.49.46.53.49.53.49.49.46.53.49.53.49.53.49.49.46.49.46.53.49.53.49.49.46.53.49.49.46.53.49.53.49.49.46.53.49.49.46.53.49.53.49.49.46.53.49.53.49.53.49.49.46.49.46.41.38.24.22c.06.07.14.15.25.15L10.68,0ZM13.23,28.44c1.53.39,3.02.85,4.51,1.33.17.05.31.11.48.12L.04,9.29v16.89l.52.02c4.3.5,8.45,1.16,12.67,2.24h0Z"></path>
  <path d="M20.91,47.62l-.5-.02-.59-.04-.38-.03c.09-.35.1-.68.05-1.05l-.56-4.21-2.79,5.26h-.5s-2.89-5.47-2.89-5.47l-.68,4.72c-.04.28.02.53.07.85h-.97c.09-.23.17-.42.2-.67l.98-7.51h.5l3.38,6.36c.12-.19.21-.36.3-.55l.58-1.13.54-1.04.55-1.06.54-1.04.55-1.06.25-.49h.4s.88,6.74.88,6.74c.07.51.14.94.4,1.42-.11.01-.19,0-.31,0h0Z"></path>
  <path d="M43.8,47.28l-.42-.39-1.25-1.24-.3-.33-.82-.95c-.18-.22-.57-.64-.88-.6v3.05c0,.24.14.45.18.73h-1.78c.06-.27.18-.54.18-.83v-6.56c0-.28-.13-.53-.18-.79l2.9.02c.62,0,1.19.17,1.73.44.58.29.95.82,1.03,1.47.03.21.01.42.02.64-.19,1.15-1.29,1.76-2.34,1.85l2.99,2.97.69.67s.06.06.12.12h-1.53c-.1-.06-.23-.17-.33-.27h0ZM43.03,41.98c.1-.78-.16-1.45-.85-1.82-.61-.33-1.3-.36-1.99-.34v3.58c.33,0,.66,0,.99,0l.53-.03c.7-.04,1.26-.66,1.32-1.39h0Z"></path>
  <path d="M6.35,43.67v3.19h3.47c.1,0,.18.02.27,0l.67-.15-.12.84h-5.89c.08-.32.2-.63.2-.98v-6.26c-.04-.34-.09-.63-.19-.94h5.59v.8c-.31-.12-.6-.23-.92-.31h-3.09v3.19h3.71l-.21.62h-3.5,0Z"></path>
  <path d="M26.64,44.56h-2.7s-1.3,2.99-1.3,2.99h-.97s.53-.85.53-.85c.03-.05.09-.13.11-.19l3.12-7.14h.41l3.18,7.08c.12.28.27.5.47.73.14.1.27.21.37.36h-1.93l-1.29-2.99h0ZM26.4,44l-1.16-2.53-1.06,2.53h2.23Z"></path>
  <path d="M35.12,44.56h-2.7s-1.3,2.99-1.3,2.99h-.98s.29-.46.29-.46c.16-.25.32-.49.45-.78l3.03-6.94h.41s3.09,6.87,3.09,6.87c.2.53.5.92.97,1.3h-1.96s-1.3-2.98-1.3-2.98h0ZM34.89,43.99l-1.17-2.53-1.17,2.54h2.34s0,0,0,0Z"></path>
</svg>